<svg width="31" height="33" viewBox="0 0 31 33" fill="none" xmlns="http://www.w3.org/2000/svg">
<g filter="url(#filter0_d)">
<path d="M17.25 13.9125C16.8875 13.55 16.2875 13.55 15.925 13.9125L10.4875 19.35L8.5 17.3625C8.1375 17 7.5375 17 7.175 17.3625C6.8125 17.725 6.8125 18.325 7.175 18.6875L9.6 21.1125C10.0875 21.6 10.875 21.6 11.3625 21.1125L17.2375 15.2375C17.6125 14.875 17.6125 14.275 17.25 13.9125V13.9125ZM21 4.5H19.75V3.25C19.75 2.5625 19.1875 2 18.5 2C17.8125 2 17.25 2.5625 17.25 3.25V4.5H7.25V3.25C7.25 2.5625 6.6875 2 6 2C5.3125 2 4.75 2.5625 4.75 3.25V4.5H3.5C2.1125 4.5 1.0125 5.625 1.0125 7L1 24.5C1 25.875 2.1125 27 3.5 27H21C22.375 27 23.5 25.875 23.5 24.5V7C23.5 5.625 22.375 4.5 21 4.5ZM19.75 24.5H4.75C4.0625 24.5 3.5 23.9375 3.5 23.25V10.75H21V23.25C21 23.9375 20.4375 24.5 19.75 24.5Z" fill="black"/>
</g>
<defs>
<filter id="filter0_d" x="0" y="0" width="30.5" height="33" filterUnits="userSpaceOnUse" color-interpolation-filters="sRGB">
<feFlood flood-opacity="0" result="BackgroundImageFix"/>
<feColorMatrix in="SourceAlpha" type="matrix" values="0 0 0 0 0 0 0 0 0 0 0 0 0 0 0 0 0 0 127 0"/>
<feOffset dx="3" dy="2"/>
<feGaussianBlur stdDeviation="2"/>
<feColorMatrix type="matrix" values="0 0 0 0 0 0 0 0 0 0 0 0 0 0 0 0 0 0 0.25 0"/>
<feBlend mode="normal" in2="BackgroundImageFix" result="effect1_dropShadow"/>
<feBlend mode="normal" in="SourceGraphic" in2="effect1_dropShadow" result="shape"/>
</filter>
</defs>
</svg>
