<svg width="32" height="32" viewBox="0 0 32 32" fill="none" xmlns="http://www.w3.org/2000/svg">
<g filter="url(#filter0_d)">
<path d="M9.16675 7.83325H11.5001V13.6666H17.3334V15.9999H9.16675V7.83325Z" fill="black"/>
<path fill-rule="evenodd" clip-rule="evenodd" d="M24.3333 13.6667C24.3333 20.1099 19.1099 25.3333 12.6667 25.3333C6.22334 25.3333 1 20.1099 1 13.6667C1 7.22334 6.22334 2 12.6667 2C19.1099 2 24.3333 7.22334 24.3333 13.6667ZM22 13.6667C22 18.8214 17.8214 23 12.6667 23C7.51201 23 3.33333 18.8214 3.33333 13.6667C3.33333 8.51201 7.51201 4.33333 12.6667 4.33333C17.8214 4.33333 22 8.51201 22 13.6667Z" fill="black"/>
</g>
<defs>
<filter id="filter0_d" x="0" y="0" width="31.3333" height="31.3333" filterUnits="userSpaceOnUse" color-interpolation-filters="sRGB">
<feFlood flood-opacity="0" result="BackgroundImageFix"/>
<feColorMatrix in="SourceAlpha" type="matrix" values="0 0 0 0 0 0 0 0 0 0 0 0 0 0 0 0 0 0 127 0"/>
<feOffset dx="3" dy="2"/>
<feGaussianBlur stdDeviation="2"/>
<feColorMatrix type="matrix" values="0 0 0 0 0 0 0 0 0 0 0 0 0 0 0 0 0 0 0.25 0"/>
<feBlend mode="normal" in2="BackgroundImageFix" result="effect1_dropShadow"/>
<feBlend mode="normal" in="SourceGraphic" in2="effect1_dropShadow" result="shape"/>
</filter>
</defs>
</svg>
