<?xml version="1.0" encoding="utf-8"?>
<!-- Generator: Adobe Illustrator 25.0.0, SVG Export Plug-In . SVG Version: 6.00 Build 0)  -->
<svg version="1.1" id="Capa_1" xmlns="http://www.w3.org/2000/svg" xmlns:xlink="http://www.w3.org/1999/xlink" x="0px" y="0px"
	 viewBox="0 0 23.3 23.3" style="enable-background:new 0 0 23.3 23.3;" xml:space="preserve">
<path d="M10.5,5.9H8.2V14h8.1v-2.3h-5.8L10.5,5.9L10.5,5.9z M11.7,0.1C5.3,0.1,0.1,5.3,0.1,11.7c0,6.3,5.2,11.6,11.6,11.6
	c6.3,0,11.6-5.2,11.6-11.6C23.2,5.3,18,0.1,11.7,0.1z M11.7,20.9c-5.2,0-9.2-4.2-9.2-9.2c0-5.2,4.2-9.2,9.2-9.2
	c5.2,0,9.2,4.2,9.2,9.2S16.8,20.9,11.7,20.9z"/>
</svg>
