<svg width="36" height="30" viewBox="0 0 36 30" fill="none" xmlns="http://www.w3.org/2000/svg">
<g filter="url(#filter0_d)">
<path d="M23.4611 21.6074C23.2025 21.5149 22.9221 21.449 22.6905 21.326C21.9931 20.9551 21.3108 20.565 20.6309 20.1744C20.4857 20.0907 20.3849 20.0942 20.2197 20.1512C19.414 20.4287 18.5996 20.6919 17.782 20.9472C17.6143 20.9993 17.5147 21.0382 17.4841 21.2025C17.3607 21.8641 17.2124 22.5233 17.0609 23.182C16.9445 23.6887 16.4681 23.9957 15.8139 23.9986C15.3037 24.0011 14.7935 23.9996 14.2834 23.9991C13.5509 23.9981 13.0783 23.6976 12.9544 23.1382C12.8154 22.5115 12.689 21.8828 12.5631 21.2542C12.53 21.0889 12.463 20.9895 12.2213 20.9403C11.1997 20.7317 10.2394 20.4016 9.35929 19.9407C9.16085 19.8369 9.02752 19.8536 8.83847 19.9505C8.17742 20.291 7.50447 20.6171 6.83404 20.9452C6.14356 21.2832 5.57454 21.2207 5.02867 20.7475C4.70691 20.4685 4.38953 20.1872 4.07403 19.9033C3.59514 19.4724 3.58262 18.9996 4.04273 18.5476C4.55604 18.0428 5.06998 17.5386 5.59519 17.0413C5.711 16.9316 5.71851 16.8534 5.64903 16.72C5.3786 16.2001 5.1257 15.6742 4.88782 15.1449C4.83085 15.0175 4.7645 14.9678 4.59611 14.9471C3.76541 14.8448 2.93722 14.7282 2.10778 14.619C1.41356 14.528 1.00478 14.1576 1.00165 13.6081C0.999774 13.1988 0.999148 12.79 1.00165 12.3807C1.00541 11.8475 1.41731 11.4722 2.09088 11.3826C2.93034 11.271 3.77105 11.1637 4.60738 11.0412C4.70816 11.0265 4.84275 10.9399 4.87029 10.8656C5.12695 10.173 5.46874 9.51083 5.91883 8.88116C5.97142 8.80787 5.95013 8.65832 5.88628 8.58502C5.43995 8.07243 4.97108 7.57165 4.51473 7.06447C4.03083 6.52679 4.08091 6.08799 4.6731 5.62017C4.99612 5.36486 5.31913 5.10955 5.64527 4.8567C6.19865 4.42823 6.76893 4.38986 7.41058 4.74454C8.05723 5.10168 8.70325 5.46078 9.33926 5.82973C9.5064 5.92664 9.62284 5.9168 9.81063 5.85138C10.6144 5.57048 11.4269 5.30386 12.2483 5.05593C12.4461 4.9964 12.5262 4.92065 12.5562 4.77258C12.6833 4.14389 12.8148 3.51619 12.9456 2.888C13.0652 2.31589 13.5365 2.00204 14.279 2.00105C14.7892 2.00007 15.2993 1.99908 15.8095 2.00154C16.4649 2.0045 16.9432 2.31047 17.0584 2.81618C17.2105 3.48274 17.357 4.15029 17.4847 4.8198C17.5122 4.96295 17.5924 5.01362 17.7451 5.04461C18.85 5.27188 19.8779 5.6364 20.825 6.13719C20.9696 6.21344 21.066 6.21098 21.21 6.13817C21.8823 5.79677 22.5628 5.46521 23.242 5.13119C23.9562 4.78045 24.5058 4.83948 25.0692 5.32993C25.376 5.59705 25.6777 5.8681 25.9813 6.13768C26.5021 6.60009 26.5146 7.06201 26.0164 7.54951C25.5087 8.04734 25.0041 8.54714 24.4858 9.03809C24.3675 9.15025 24.3637 9.23289 24.4307 9.36424C24.6799 9.85567 24.9115 10.3525 25.1375 10.8513C25.1907 10.9684 25.2408 11.0358 25.4204 11.0575C26.2411 11.1558 27.0586 11.2729 27.8781 11.3802C28.5942 11.4736 28.9961 11.8372 28.9986 12.4053C29.0005 12.8063 29.0005 13.2072 28.9986 13.6081C28.9955 14.1581 28.5873 14.528 27.8925 14.6185C27.073 14.7258 26.2555 14.8399 25.4348 14.9407C25.2689 14.9614 25.185 15.0052 25.1425 15.1375C24.919 15.8385 24.5641 16.4987 24.0952 17.119C24.0019 17.243 24.0351 17.3177 24.1296 17.4206C24.6248 17.9563 25.1143 18.4954 25.5994 19.037C26.0427 19.5314 25.9894 19.9938 25.4467 20.4257C25.0955 20.7052 24.7412 20.9821 24.3856 21.2581C24.139 21.4499 23.8467 21.5611 23.4611 21.6074ZM20.2848 12.9957C20.2747 10.7234 17.9179 8.87182 15.0402 8.87526C12.1437 8.8787 9.79811 10.7411 9.80938 13.0271C9.82065 15.2792 12.1869 17.1288 15.0496 17.1229C17.9323 17.1175 20.2948 15.2551 20.2848 12.9957Z" fill="black"/>
</g>
<defs>
<filter id="filter0_d" x="0" y="0" width="36" height="30" filterUnits="userSpaceOnUse" color-interpolation-filters="sRGB">
<feFlood flood-opacity="0" result="BackgroundImageFix"/>
<feColorMatrix in="SourceAlpha" type="matrix" values="0 0 0 0 0 0 0 0 0 0 0 0 0 0 0 0 0 0 127 0"/>
<feOffset dx="3" dy="2"/>
<feGaussianBlur stdDeviation="2"/>
<feColorMatrix type="matrix" values="0 0 0 0 0 0 0 0 0 0 0 0 0 0 0 0 0 0 0.25 0"/>
<feBlend mode="normal" in2="BackgroundImageFix" result="effect1_dropShadow"/>
<feBlend mode="normal" in="SourceGraphic" in2="effect1_dropShadow" result="shape"/>
</filter>
</defs>
</svg>
