<svg width="452" height="529" viewBox="0 0 452 529" fill="none" xmlns="http://www.w3.org/2000/svg">
<path d="M0 0H428.148V529H0V0Z" fill="black"/>
<path d="M23.8523 0H452V529H23.8523V0Z" fill="black"/>
<path d="M386.406 1.06412V155.357H428.148V1.06412H386.406Z" fill="#FF4E10"/>
<path d="M411.446 174.879V12.2203" stroke="white" stroke-width="2" stroke-miterlimit="10"/>
<path d="M399.528 174.879V12.2203" stroke="white" stroke-width="2" stroke-miterlimit="10"/>
<path d="M328.178 127.965C328.178 127.965 308.258 122.062 308.258 105.101C308.258 88.1323 328.178 81.9916 328.178 81.9916" stroke="white" stroke-width="2.2907" stroke-miterlimit="10"/>
<path d="M330.378 125.267C330.378 125.267 312.8 120.058 312.8 105.094C312.8 90.1296 330.378 84.7044 330.378 84.7044" stroke="white" stroke-width="2.0212" stroke-miterlimit="10"/>
<path d="M331.565 122.562C331.565 122.562 316.33 118.046 316.33 105.079C316.33 92.112 331.565 87.4022 331.565 87.4022" stroke="white" stroke-width="1.7517" stroke-miterlimit="10"/>
<path d="M328.178 63.0032C328.178 63.0032 308.258 57.101 308.258 40.1396C308.258 23.1708 328.178 17.0302 328.178 17.0302" stroke="white" stroke-width="2.2907" stroke-miterlimit="10"/>
<path d="M330.378 60.2981C330.378 60.2981 312.8 55.089 312.8 40.1248C312.8 25.1532 330.378 19.728 330.378 19.728" stroke="white" stroke-width="2.0212" stroke-miterlimit="10"/>
<path d="M331.565 57.5928C331.565 57.5928 316.33 53.0767 316.33 40.1097C316.33 27.1353 331.565 22.433 331.565 22.433" stroke="white" stroke-width="1.7517" stroke-miterlimit="10"/>
<path d="M328.178 192.27C328.178 192.27 308.258 186.368 308.258 169.407C308.258 152.438 328.178 146.297 328.178 146.297" stroke="white" stroke-width="2.2907" stroke-miterlimit="10"/>
<path d="M330.378 189.565C330.378 189.565 312.8 184.356 312.8 169.392C312.8 154.42 330.378 148.995 330.378 148.995" stroke="white" stroke-width="2.0212" stroke-miterlimit="10"/>
<path d="M331.565 186.86C331.565 186.86 316.33 182.344 316.33 169.377C316.33 156.403 331.565 151.7 331.565 151.7" stroke="white" stroke-width="1.7517" stroke-miterlimit="10"/>
<path d="M310.918 160.106C310.918 160.106 290.997 154.204 290.997 137.243C290.997 120.281 310.918 114.133 310.918 114.133" stroke="white" stroke-width="2.2907" stroke-miterlimit="10"/>
<path d="M313.128 157.401C313.128 157.401 295.55 152.192 295.55 137.228C295.55 122.264 313.128 116.838 313.128 116.838" stroke="white" stroke-width="2.0212" stroke-miterlimit="10"/>
<path d="M314.315 154.703C314.315 154.703 299.08 150.187 299.08 137.22C299.08 124.253 314.315 119.543 314.315 119.543" stroke="white" stroke-width="1.7517" stroke-miterlimit="10"/>
<path d="M310.918 94.8096C310.918 94.8096 290.997 88.9074 290.997 71.946C290.997 54.9772 310.918 48.8365 310.918 48.8365" stroke="white" stroke-width="2.2907" stroke-miterlimit="10"/>
<path d="M313.128 92.1045C313.128 92.1045 295.55 86.8953 295.55 71.9312C295.55 56.967 313.128 51.5417 313.128 51.5417" stroke="white" stroke-width="2.0212" stroke-miterlimit="10"/>
<path d="M314.315 89.4065C314.315 89.4065 299.08 84.8904 299.08 71.9235C299.08 58.9565 314.315 54.2467 314.315 54.2467" stroke="white" stroke-width="1.7517" stroke-miterlimit="10"/>
<path d="M353.213 133.138C353.213 133.138 333.292 127.243 333.292 110.305C333.292 93.3588 353.213 87.2263 353.213 87.2263" stroke="#5776C8" stroke-width="2.2907" stroke-miterlimit="10"/>
<path d="M355.423 130.444C355.423 130.444 337.845 125.241 337.845 110.297C337.845 95.3533 355.423 89.9353 355.423 89.9353" stroke="#5776C8" stroke-width="2.0212" stroke-miterlimit="10"/>
<path d="M356.61 127.742C356.61 127.742 341.375 123.232 341.375 110.283C341.375 97.333 356.61 92.6296 356.61 92.6296" stroke="#5776C8" stroke-width="1.7517" stroke-miterlimit="10"/>
<path d="M353.213 68.2634C353.213 68.2634 333.292 62.3692 333.292 45.4305C333.292 28.4845 353.213 22.3521 353.213 22.3521" stroke="#FE81BB" stroke-width="2.2907" stroke-miterlimit="10"/>
<path d="M355.423 65.562C355.423 65.562 337.845 60.3599 337.845 45.4158C337.845 30.4642 355.423 25.0463 355.423 25.0463" stroke="#FE81BB" stroke-width="2.0212" stroke-miterlimit="10"/>
<path d="M356.61 62.8604C356.61 62.8604 341.375 58.3503 341.375 45.4008C341.375 32.4438 356.61 27.7477 356.61 27.7477" stroke="#FE81BB" stroke-width="1.7517" stroke-miterlimit="10"/>
<path d="M353.213 197.357C353.213 197.357 333.292 191.463 333.292 174.524C333.292 157.578 353.213 151.446 353.213 151.446" stroke="#FF4E10" stroke-width="2.2907" stroke-miterlimit="10"/>
<path d="M355.423 194.656C355.423 194.656 337.845 189.454 337.845 174.509C337.845 159.558 355.423 154.14 355.423 154.14" stroke="#FF4E10" stroke-width="2.0212" stroke-miterlimit="10"/>
<path d="M356.61 191.954C356.61 191.954 341.375 187.444 341.375 174.495C341.375 161.538 356.61 156.841 356.61 156.841" stroke="#FF4E10" stroke-width="1.7517" stroke-miterlimit="10"/>
<path d="M335.963 165.236C335.963 165.236 316.042 159.342 316.042 142.403C316.042 125.465 335.963 119.325 335.963 119.325" stroke="#FE81BB" stroke-width="2.2907" stroke-miterlimit="10"/>
<path d="M338.162 162.535C338.162 162.535 320.585 157.333 320.585 142.388C320.585 127.444 338.162 122.026 338.162 122.026" stroke="#FE81BB" stroke-width="2.0212" stroke-miterlimit="10"/>
<path d="M339.359 159.841C339.359 159.841 324.125 155.331 324.125 142.381C324.125 129.431 339.359 124.728 339.359 124.728" stroke="#FE81BB" stroke-width="1.7517" stroke-miterlimit="10"/>
<path d="M335.963 100.027C335.963 100.027 316.042 94.1328 316.042 77.1942C316.042 60.2481 335.963 54.1157 335.963 54.1157" stroke="#F85D26" stroke-width="2.2907" stroke-miterlimit="10"/>
<path d="M338.162 97.3257C338.162 97.3257 320.585 92.1235 320.585 77.1794C320.585 62.2353 338.162 56.8173 338.162 56.8173" stroke="#F85D26" stroke-width="2.0212" stroke-miterlimit="10"/>
<path d="M339.359 94.6313C339.359 94.6313 324.125 90.1213 324.125 77.1718C324.125 64.2222 339.359 59.5187 339.359 59.5187" stroke="#F85D26" stroke-width="1.7517" stroke-miterlimit="10"/>
<path d="M33.3932 102.334L33.3932 23.4166H122.907L33.3932 102.334Z" stroke="white" stroke-width="2" stroke-miterlimit="10"/>
<path d="M232.524 75.7674C207.476 71.5443 182.38 83.1528 176.471 101.696C170.563 120.239 186.079 138.694 211.127 142.917C236.176 147.14 261.272 135.532 267.18 116.989C273.089 98.446 257.573 79.9905 232.524 75.7674Z" fill="#5776C8"/>
<path d="M172.929 177.231V57.4769" stroke="white" stroke-width="1.3572" stroke-miterlimit="10"/>
<path d="M177.593 177.231V57.4769" stroke="white" stroke-width="1.3572" stroke-miterlimit="10"/>
<path d="M182.246 177.231V57.4769" stroke="white" stroke-width="1.3572" stroke-miterlimit="10"/>
<path d="M186.899 177.231V57.4769" stroke="white" stroke-width="1.3572" stroke-miterlimit="10"/>
<path d="M191.564 177.231V57.4769" stroke="white" stroke-width="1.3572" stroke-miterlimit="10"/>
<path d="M196.217 177.231V57.4769" stroke="white" stroke-width="1.3572" stroke-miterlimit="10"/>
<path d="M200.87 177.231V57.4769" stroke="white" stroke-width="1.3572" stroke-miterlimit="10"/>
<path d="M205.535 177.231V57.4769" stroke="white" stroke-width="1.3572" stroke-miterlimit="10"/>
<path d="M210.188 177.231V57.4769" stroke="white" stroke-width="1.3572" stroke-miterlimit="10"/>
<path d="M214.84 177.231V57.4769" stroke="white" stroke-width="1.3572" stroke-miterlimit="10"/>
<path d="M219.494 177.231V57.4769" stroke="white" stroke-width="1.3572" stroke-miterlimit="10"/>
<path d="M224.158 177.231V57.4769" stroke="white" stroke-width="1.3572" stroke-miterlimit="10"/>
<path d="M228.811 177.231V57.4769" stroke="white" stroke-width="1.3572" stroke-miterlimit="10"/>
<path d="M233.464 177.231V57.4769" stroke="white" stroke-width="1.3572" stroke-miterlimit="10"/>
<path d="M238.129 177.231V57.4769" stroke="white" stroke-width="1.3572" stroke-miterlimit="10"/>
<path d="M242.782 177.231V57.4769" stroke="white" stroke-width="1.3572" stroke-miterlimit="10"/>
<path d="M247.435 177.231V57.4769" stroke="white" stroke-width="1.3572" stroke-miterlimit="10"/>
<path d="M252.099 177.231V57.4769" stroke="white" stroke-width="1.3572" stroke-miterlimit="10"/>
<path d="M256.752 177.231V57.4769" stroke="white" stroke-width="1.3572" stroke-miterlimit="10"/>
<path d="M261.405 177.231V57.4769" stroke="white" stroke-width="1.3572" stroke-miterlimit="10"/>
<path d="M266.07 177.231V57.4769" stroke="white" stroke-width="1.3572" stroke-miterlimit="10"/>
<path d="M270.723 177.231V57.4769" stroke="white" stroke-width="1.3572" stroke-miterlimit="10"/>
<path d="M144.59 71.329C144.59 73.9263 143.035 76.3823 140.334 78.0791C139.27 78.7489 138.687 79.6643 138.687 80.6765C138.687 81.6886 139.27 82.6114 140.324 83.2664L140.385 83.3036C143.045 84.9632 144.601 87.4266 144.601 90.024C144.601 92.6213 143.045 95.0773 140.344 96.7741C139.28 97.4365 138.697 98.3593 138.697 99.3714C138.697 100.384 139.28 101.306 140.334 101.961L140.426 102.013C143.086 103.703 144.611 106.144 144.611 108.711C144.611 111.309 143.056 113.772 140.355 115.462C139.291 116.124 138.718 117.047 138.718 118.059C138.718 119.071 139.301 119.994 140.355 120.649C143.066 122.346 144.621 124.802 144.621 127.399C144.621 129.996 143.066 132.46 140.355 134.149C139.301 134.812 138.718 135.734 138.718 136.747C138.718 137.744 139.28 138.659 140.314 139.314L140.355 139.344C143.066 141.041 144.611 143.497 144.611 146.094C144.611 148.691 143.056 151.155 140.344 152.844C139.291 153.507 138.707 154.422 138.707 155.434C138.707 156.446 139.291 157.369 140.344 158.024L137.909 160.086L135.638 162.296L135.444 162.177C132.732 160.487 131.187 158.024 131.187 155.427C131.187 152.829 132.743 150.366 135.454 148.677C136.508 148.014 137.091 147.099 137.091 146.087C137.091 145.089 136.528 144.174 135.495 143.519L135.454 143.489C132.743 141.8 131.198 139.336 131.198 136.739C131.198 134.142 132.753 131.678 135.464 129.989C136.518 129.327 137.101 128.404 137.101 127.392C137.101 126.379 136.518 125.457 135.464 124.802C132.753 123.105 131.198 120.649 131.198 118.052C131.198 115.454 132.753 112.991 135.454 111.301C136.518 110.639 137.101 109.716 137.101 108.704C137.101 107.692 136.518 106.769 135.464 106.114L135.382 106.062C132.722 104.373 131.198 101.932 131.198 99.364C131.198 96.7666 132.753 94.3107 135.454 92.6138C136.518 91.9515 137.101 91.0287 137.101 90.0165C137.101 89.0044 136.518 88.0815 135.464 87.4266L135.403 87.3894C132.743 85.7297 131.187 83.2664 131.187 80.669C131.187 78.0716 132.743 75.6157 135.444 73.9189C136.508 73.249 137.091 72.3262 137.091 71.3141H144.59V71.329Z" stroke="white" stroke-width="2" stroke-miterlimit="10"/>
<path d="M150.574 73.4576C150.574 76.055 149.019 78.5109 146.318 80.2078C145.254 80.8776 144.67 81.793 144.67 82.8051C144.67 83.8173 145.254 84.7401 146.307 85.395L146.369 85.4322C149.029 87.0918 150.584 89.5553 150.584 92.1526C150.584 94.75 149.029 97.2059 146.328 98.9028C145.264 99.5651 144.681 100.488 144.681 101.5C144.681 102.512 145.264 103.435 146.318 104.09L146.41 104.142C149.07 105.832 150.594 108.273 150.594 110.84C150.594 113.438 149.039 115.901 146.338 117.59C145.274 118.253 144.691 119.176 144.691 120.188C144.691 121.2 145.274 122.123 146.328 122.778C149.039 124.474 150.594 126.93 150.594 129.528C150.594 132.125 149.039 134.588 146.328 136.278C145.274 136.94 144.691 137.863 144.691 138.875C144.691 139.872 145.254 140.788 146.287 141.443L146.328 141.473C149.039 143.169 150.584 145.625 150.584 148.223C150.584 150.82 149.029 153.283 146.318 154.973C145.264 155.635 144.681 156.551 144.681 157.563C144.681 158.575 145.264 159.498 146.318 160.153L143.883 162.214L141.611 164.425L141.417 164.306C138.706 162.616 137.161 160.153 137.161 157.555C137.161 154.958 138.716 152.495 141.427 150.805C142.481 150.143 143.064 149.227 143.064 148.215C143.064 147.218 142.501 146.303 141.468 145.648L141.427 145.618C138.716 143.929 137.171 141.465 137.171 138.868C137.171 136.27 138.726 133.807 141.437 132.118C142.491 131.455 143.074 130.532 143.074 129.52C143.074 128.508 142.491 127.585 141.437 126.93C138.726 125.234 137.171 122.778 137.171 120.18C137.171 117.583 138.726 115.119 141.427 113.43C142.491 112.768 143.064 111.845 143.064 110.833C143.064 109.821 142.481 108.898 141.427 108.243L141.345 108.191C138.685 106.501 137.161 104.06 137.161 101.493C137.161 98.8953 138.716 96.4394 141.417 94.7425C142.481 94.0801 143.064 93.1573 143.064 92.1452C143.064 91.133 142.481 90.2102 141.427 89.5553L141.366 89.518C138.706 87.8584 137.15 85.395 137.15 82.7977C137.15 80.2003 138.706 77.7444 141.407 76.0475C142.471 75.3777 143.054 74.4549 143.054 73.4427H150.574V73.4576Z" stroke="white" stroke-miterlimit="10"/>
<path d="M135.06 71.329C135.06 73.9263 133.505 76.3823 130.804 78.0791C129.739 78.7489 129.156 79.6643 129.156 80.6765C129.156 81.6886 129.739 82.6114 130.793 83.2664L130.855 83.3036C133.515 84.9632 135.07 87.4266 135.07 90.024C135.07 92.6213 133.515 95.0773 130.814 96.7741C129.75 97.4365 129.167 98.3593 129.167 99.3714C129.167 100.384 129.75 101.306 130.804 101.961L130.896 102.013C133.556 103.703 135.08 106.144 135.08 108.711C135.08 111.309 133.525 113.772 130.824 115.462C129.76 116.124 129.187 117.047 129.187 118.059C129.187 119.071 129.77 119.994 130.824 120.649C133.535 122.346 135.09 124.802 135.09 127.399C135.09 129.996 133.535 132.46 130.824 134.149C129.77 134.812 129.187 135.734 129.187 136.747C129.187 137.744 129.75 138.659 130.783 139.314L130.824 139.344C133.535 141.041 135.08 143.497 135.08 146.094C135.08 148.691 133.525 151.155 130.814 152.844C129.76 153.507 129.177 154.422 129.177 155.434C129.177 156.446 129.76 157.369 130.814 158.024L128.379 160.086L126.107 162.296L125.913 162.177C123.202 160.487 121.657 158.024 121.657 155.427C121.657 152.829 123.212 150.366 125.923 148.677C126.977 148.014 127.56 147.099 127.56 146.087C127.56 145.089 126.997 144.174 125.964 143.519L125.923 143.489C123.212 141.8 121.667 139.336 121.667 136.739C121.667 134.142 123.222 131.678 125.933 129.989C126.987 129.327 127.57 128.404 127.57 127.392C127.57 126.379 126.987 125.457 125.933 124.802C123.222 123.105 121.667 120.649 121.667 118.052C121.667 115.454 123.222 112.991 125.923 111.301C126.987 110.639 127.56 109.716 127.56 108.704C127.56 107.692 126.977 106.769 125.923 106.114L125.841 106.062C123.181 104.373 121.657 101.932 121.657 99.364C121.657 96.7666 123.212 94.3107 125.913 92.6138C126.977 91.9515 127.56 91.0287 127.56 90.0165C127.56 89.0044 126.977 88.0815 125.923 87.4266L125.862 87.3894C123.202 85.7297 121.646 83.2664 121.646 80.669C121.646 78.0716 123.202 75.6157 125.903 73.9189C126.967 73.249 127.55 72.3262 127.55 71.3141H135.06V71.329Z" fill="#FE81BB"/>
<path d="M195.216 192.656L168.158 212.338L195.216 232.019L222.273 212.338L195.216 192.656Z" fill="#FF4E10"/>
<path d="M248.612 192.658L221.554 212.339L248.612 232.021L275.669 212.339L248.612 192.658Z" fill="#FF4E10"/>
<path d="M216.57 192.654L189.512 212.335L216.57 232.017L243.627 212.335L216.57 192.654Z" stroke="white" stroke-width="1.7879" stroke-miterlimit="10"/>
<path d="M162.195 36.1892V49.7043H180.775V36.1892H162.195Z" stroke="white" stroke-width="2" stroke-miterlimit="10"/>
<path d="M190.065 36.1892V49.7043H208.646V36.1892H190.065Z" fill="#FF4E10"/>
<path d="M217.936 36.1892V49.7043H236.516V36.1892H217.936Z" stroke="white" stroke-width="2" stroke-miterlimit="10"/>
<path d="M245.806 36.1892V49.7043H264.386V36.1892H245.806Z" fill="#5776C8"/>
<path d="M196.781 335.391L206.255 330.866L215.74 326.334V335.391V344.441L206.255 339.916L196.781 335.391Z" fill="white"/>
<path d="M196.781 313.533L206.255 309.008L215.74 304.483V313.533V322.59L206.255 318.065L196.781 313.533Z" fill="white"/>
<path d="M196.781 291.682L206.255 287.158L215.74 282.625V291.682V300.74L206.255 296.207L196.781 291.682Z" fill="white"/>
<path d="M196.781 269.832L206.255 265.299L215.74 260.775V269.832V278.882L206.255 274.357L196.781 269.832Z" fill="white"/>
<path d="M221.93 335.391L231.414 330.866L240.888 326.334V335.391V344.441L231.414 339.916L221.93 335.391Z" fill="#FF4E10"/>
<path d="M221.93 313.533L231.414 309.008L240.888 304.483V313.533V322.59L231.414 318.065L221.93 313.533Z" fill="#5776C8"/>
<path d="M221.93 291.682L231.414 287.158L240.888 282.625V291.682V300.74L231.414 296.207L221.93 291.682Z" fill="#FF4E10"/>
<path d="M221.93 269.832L231.414 265.299L240.888 260.775V269.832V278.882L231.414 274.357L221.93 269.832Z" fill="#5776C8"/>
<path d="M248.063 302.753L290.759 284.824L333.464 266.888V302.753V338.625L290.759 320.689L248.063 302.753Z" fill="#5776C8"/>
<path d="M275.882 371.177V232.036" stroke="white" stroke-width="1.6202" stroke-miterlimit="10"/>
<path d="M280.763 371.177V232.036" stroke="white" stroke-width="1.6202" stroke-miterlimit="10"/>
<path d="M285.643 371.177V232.036" stroke="white" stroke-width="1.6202" stroke-miterlimit="10"/>
<path d="M290.513 371.177V232.036" stroke="white" stroke-width="1.6202" stroke-miterlimit="10"/>
<path d="M295.394 371.177V232.036" stroke="white" stroke-width="1.6202" stroke-miterlimit="10"/>
<path d="M300.274 371.177V232.036" stroke="white" stroke-width="1.6202" stroke-miterlimit="10"/>
<path d="M305.144 371.177V232.036" stroke="white" stroke-width="1.6202" stroke-miterlimit="10"/>
<path d="M310.024 371.177V232.036" stroke="white" stroke-width="1.6202" stroke-miterlimit="10"/>
<path d="M314.905 371.177V232.036" stroke="white" stroke-width="1.6202" stroke-miterlimit="10"/>
<path d="M319.775 371.177V232.036" stroke="white" stroke-width="1.6202" stroke-miterlimit="10"/>
<path d="M324.655 371.177V232.036" stroke="white" stroke-width="1.6202" stroke-miterlimit="10"/>
<path d="M329.536 371.177V232.036" stroke="white" stroke-width="1.6202" stroke-miterlimit="10"/>
<path d="M334.406 371.177V232.036" stroke="white" stroke-width="1.6202" stroke-miterlimit="10"/>
<path d="M339.286 371.177V232.036" stroke="white" stroke-width="1.6202" stroke-miterlimit="10"/>
<path d="M344.166 371.177V232.036" stroke="white" stroke-width="1.6202" stroke-miterlimit="10"/>
<path d="M349.036 371.177V232.036" stroke="white" stroke-width="1.6202" stroke-miterlimit="10"/>
<path d="M353.917 371.177V232.036" stroke="white" stroke-width="1.6202" stroke-miterlimit="10"/>
<path d="M358.797 371.177V232.036" stroke="white" stroke-width="1.6202" stroke-miterlimit="10"/>
<path d="M363.667 371.177V232.036" stroke="white" stroke-width="1.6202" stroke-miterlimit="10"/>
<path d="M368.548 371.177V232.036" stroke="white" stroke-width="1.6202" stroke-miterlimit="10"/>
<path d="M373.428 371.177V232.036" stroke="white" stroke-width="1.6202" stroke-miterlimit="10"/>
<path d="M378.308 371.177V232.036" stroke="white" stroke-width="1.6202" stroke-miterlimit="10"/>
<path d="M338.221 449.537C338.221 445.801 334.057 442.772 328.92 442.772C323.784 442.772 319.62 445.801 319.62 449.537C319.62 453.273 323.784 456.302 328.92 456.302C334.057 456.302 338.221 453.273 338.221 449.537Z" fill="#FE81BB"/>
<path d="M338.221 439.237C338.221 435.5 334.057 432.472 328.92 432.472C323.784 432.472 319.62 435.5 319.62 439.237C319.62 442.973 323.784 446.002 328.92 446.002C334.057 446.002 338.221 442.973 338.221 439.237Z" stroke="white" stroke-width="2" stroke-miterlimit="10"/>
<path d="M338.221 430.41C338.221 426.674 334.057 423.645 328.92 423.645C323.784 423.645 319.62 426.674 319.62 430.41C319.62 434.146 323.784 437.175 328.92 437.175C334.057 437.175 338.221 434.146 338.221 430.41Z" fill="#FF4E10"/>
<path d="M339.223 372.785C339.223 369.048 335.06 366.02 329.923 366.02C324.787 366.02 320.623 369.048 320.623 372.785C320.623 376.521 324.787 379.55 329.923 379.55C335.06 379.55 339.223 376.521 339.223 372.785Z" fill="#FF4E10"/>
<path d="M338.221 420.117C338.221 416.381 334.057 413.352 328.92 413.352C323.784 413.352 319.62 416.381 319.62 420.117C319.62 423.854 323.784 426.882 328.92 426.882C334.057 426.882 338.221 423.854 338.221 420.117Z" stroke="white" stroke-width="2" stroke-miterlimit="10"/>
<path d="M338.221 411.581C338.221 407.845 334.057 404.816 328.92 404.816C323.784 404.816 319.62 407.845 319.62 411.581C319.62 415.317 323.784 418.346 328.92 418.346C334.057 418.346 338.221 415.317 338.221 411.581Z" fill="#5776C8"/>
<path d="M339.223 352.691C339.223 348.954 335.06 345.926 329.923 345.926C324.787 345.926 320.623 348.954 320.623 352.691C320.623 356.427 324.787 359.456 329.923 359.456C335.06 359.456 339.223 356.427 339.223 352.691Z" fill="#5776C8"/>
<path d="M338.221 401.288C338.221 397.552 334.057 394.523 328.92 394.523C323.784 394.523 319.62 397.552 319.62 401.288C319.62 405.025 323.784 408.053 328.92 408.053C334.057 408.053 338.221 405.025 338.221 401.288Z" stroke="white" stroke-width="2" stroke-miterlimit="10"/>
<path d="M338.221 392.462C338.221 388.726 334.057 385.697 328.92 385.697C323.784 385.697 319.62 388.726 319.62 392.462C319.62 396.198 323.784 399.227 328.92 399.227C334.057 399.227 338.221 396.198 338.221 392.462Z" fill="#FE81BB"/>
<path d="M338.221 382.169C338.221 378.433 334.057 375.404 328.92 375.404C323.784 375.404 319.62 378.433 319.62 382.169C319.62 385.906 323.784 388.934 328.92 388.934C334.057 388.934 338.221 385.906 338.221 382.169Z" stroke="white" stroke-width="2" stroke-miterlimit="10"/>
<path d="M339.223 361.621C339.223 357.885 335.06 354.856 329.923 354.856C324.787 354.856 320.623 357.885 320.623 361.621C320.623 365.357 324.787 368.386 329.923 368.386C335.06 368.386 339.223 365.357 339.223 361.621Z" stroke="white" stroke-width="2" stroke-miterlimit="10"/>
<path d="M13.6552 430.206H94.9126V478.394H13.6552L13.6552 430.206ZM11.9261 428.948L11.9261 479.652H96.6417V428.948H11.9261Z" fill="white"/>
<path d="M127.54 501.242L97.5114 479.392V430.317L127.54 449.131V501.242Z" fill="#FF4E10"/>
<path d="M98.3708 431.687L126.681 449.421V499.724L98.3708 479.131V431.687ZM96.6417 428.948V479.652L128.41 502.76V448.841L96.6417 428.948Z" fill="white"/>
<path d="M15.5583 480.91H95.9255L124.236 501.503H38.5174L15.5583 480.91ZM11.9261 479.652L37.6887 502.76H128.4L96.6314 479.652H11.9261Z" fill="white"/>
<path d="M13.5017 513.886L22.3723 519.438L31.2531 513.886L40.1237 519.438L49.0045 513.886L57.875 519.438L66.7559 513.886L75.6264 519.438L84.497 513.886L93.3778 519.438L102.259 513.886L111.139 519.438L120.02 513.886L128.901 519.438" stroke="white" stroke-width="1.8655" stroke-miterlimit="10"/>
<path d="M13.5017 506.541L22.3723 512.093L31.2531 506.541L40.1237 512.093L49.0045 506.541L57.875 512.093L66.7559 506.541L75.6264 512.093L84.497 506.541L93.3778 512.093L102.259 506.541L111.139 512.093L120.02 506.541L128.901 512.093" stroke="white" stroke-width="1.8655" stroke-miterlimit="10"/>
<path d="M13.5017 498.987L22.3723 504.539L31.2531 498.987L40.1237 504.539L49.0045 498.987L57.875 504.539L66.7559 498.987L75.6264 504.539L84.497 498.987L93.3778 504.539L102.259 498.987L111.139 504.539L120.02 498.987L128.901 504.539" stroke="white" stroke-width="1.8655" stroke-miterlimit="10"/>
<path d="M13.5017 491.642L22.3723 497.194L31.2531 491.642L40.1237 497.194L49.0045 491.642L57.875 497.194L66.7559 491.642L75.6264 497.194L84.497 491.642L93.3778 497.194L102.259 491.642L111.139 497.194L120.02 491.642L128.901 497.194" stroke="white" stroke-width="1.8655" stroke-miterlimit="10"/>
<path d="M13.5017 485.256L22.3723 490.808L31.2531 485.256L40.1237 490.808L49.0045 485.256L57.875 490.808L66.7559 485.256L75.6264 490.808L84.497 485.256L93.3778 490.808L102.259 485.256L111.139 490.808L120.02 485.256L128.901 490.808" stroke="white" stroke-width="1.8655" stroke-miterlimit="10"/>
<path d="M13.5017 477.91L22.3723 483.462L31.2531 477.91L40.1237 483.462L49.0045 477.91L57.875 483.462L66.7559 477.91L75.6264 483.462L84.497 477.91L93.3778 483.462L102.259 477.91L111.139 483.462L120.02 477.91L128.901 483.462" stroke="white" stroke-width="1.8655" stroke-miterlimit="10"/>
<path d="M13.5017 471.845L22.3723 477.397L31.2531 471.845L40.1237 477.397L49.0045 471.845L57.875 477.397L66.7559 471.845L75.6264 477.397L84.497 471.845L93.3778 477.397L102.259 471.845L111.139 477.397L120.02 471.845L128.901 477.397" stroke="white" stroke-width="1.8655" stroke-miterlimit="10"/>
<path d="M13.5017 464.5L22.3723 470.052L31.2531 464.5L40.1237 470.052L49.0045 464.5L57.875 470.052L66.7559 464.5L75.6264 470.052L84.497 464.5L93.3778 470.052L102.259 464.5L111.139 470.052L120.02 464.5L128.901 470.052" stroke="white" stroke-width="1.8655" stroke-miterlimit="10"/>
<path d="M131.23 344.073C121.914 328.049 96.503 320.552 74.4735 327.329C52.4441 334.106 42.1382 352.59 51.4547 368.614C60.7711 384.638 86.182 392.134 108.211 385.358C130.241 378.581 140.547 360.097 131.23 344.073Z" fill="#FE81BB"/>
<path d="M77.9134 324.164C77.9134 322.154 73.6162 322.147 73.6162 324.164C73.6162 326.173 77.9134 326.173 77.9134 324.164Z" fill="white"/>
<path d="M82.1902 332.068C82.1902 332.209 82.1902 332.343 82.1902 332.484C82.18 332.7 82.2413 332.901 82.3743 333.087C82.4562 333.281 82.6097 333.452 82.8143 333.593C83.0087 333.742 83.244 333.854 83.51 333.913C83.7658 334.01 84.0421 334.055 84.3388 334.047C84.5332 334.032 84.7173 334.01 84.9117 333.995C85.2801 333.921 85.587 333.787 85.8633 333.593C85.9758 333.489 86.0883 333.385 86.2009 333.281C86.3953 333.035 86.4976 332.775 86.4976 332.492C86.4976 332.35 86.4976 332.216 86.4976 332.075C86.5078 331.859 86.4464 331.658 86.3134 331.472C86.2316 331.279 86.0781 331.108 85.8735 330.966C85.6791 330.817 85.4438 330.706 85.1777 330.646C84.922 330.549 84.6457 330.505 84.349 330.512C84.1546 330.535 83.9704 330.549 83.776 330.564C83.4077 330.639 83.1008 330.773 82.8245 330.966C82.712 331.07 82.5994 331.175 82.4869 331.279C82.2925 331.517 82.1902 331.785 82.1902 332.068Z" fill="white"/>
<path d="M91.6337 324.581C91.6337 322.571 87.3365 322.564 87.3365 324.581C87.3365 326.59 91.6337 326.59 91.6337 324.581Z" fill="white"/>
<path d="M85.3414 317.094C85.3414 316.952 85.3414 316.818 85.3414 316.677C85.3516 316.461 85.2902 316.26 85.1572 316.074C85.0754 315.881 84.9219 315.71 84.7173 315.568C84.5229 315.419 84.2875 315.308 84.0215 315.248C83.7658 315.151 83.4895 315.107 83.1928 315.114C82.9984 315.136 82.8143 315.151 82.6199 315.174C82.2515 315.248 81.9446 315.382 81.6684 315.576C81.5558 315.68 81.4433 315.784 81.3308 315.888C81.1364 316.134 81.0341 316.394 81.0341 316.677C81.0341 316.818 81.0341 316.952 81.0341 317.094C81.0238 317.31 81.0852 317.511 81.2182 317.697C81.3001 317.89 81.4535 318.061 81.6581 318.203C81.8525 318.352 82.0879 318.463 82.3539 318.523C82.6097 318.619 82.8859 318.664 83.1826 318.657C83.377 318.642 83.5612 318.619 83.7555 318.605C84.1239 318.53 84.4308 318.396 84.707 318.203C84.8196 318.099 84.9321 317.994 85.0446 317.89C85.239 317.637 85.3414 317.377 85.3414 317.094Z" fill="white"/>
<path d="M103.635 314.601C103.635 312.591 99.3379 312.584 99.3379 314.601C99.3379 316.61 103.635 316.61 103.635 314.601Z" fill="white"/>
<path d="M110.5 323.747C110.5 321.738 106.203 321.73 106.203 323.747C106.203 325.757 110.5 325.764 110.5 323.747Z" fill="white"/>
<path d="M105.354 335.394C105.354 333.385 101.057 333.377 101.057 335.394C101.057 337.404 105.354 337.404 105.354 335.394Z" fill="white"/>
<path d="M90.4877 342.874C90.4877 340.864 86.1906 340.857 86.1906 342.874C86.1906 344.891 90.4877 344.891 90.4877 342.874Z" fill="white"/>
<path d="M74.4757 338.721C74.4757 336.712 70.1785 336.704 70.1785 338.721C70.1785 340.73 74.4757 340.73 74.4757 338.721Z" fill="white"/>
<path d="M65.9019 328.324C65.9019 326.315 61.6047 326.307 61.6047 328.324C61.6047 330.334 65.9019 330.334 65.9019 328.324Z" fill="white"/>
<path d="M64.7559 318.337C64.7559 316.327 60.4587 316.32 60.4587 318.337C60.4587 320.354 64.7559 320.354 64.7559 318.337Z" fill="white"/>
<path d="M71.0481 310.857C71.0481 308.848 66.751 308.84 66.751 310.857C66.751 312.867 71.0481 312.867 71.0481 310.857Z" fill="white"/>
<path d="M78.0464 306.176C78.2408 306.176 78.425 306.176 78.6194 306.176C78.9161 306.183 79.1924 306.139 79.4482 306.042C79.7142 305.982 79.9495 305.871 80.1439 305.722C80.3485 305.581 80.502 305.409 80.5838 305.216C80.7168 305.03 80.7782 304.829 80.768 304.613C80.7475 304.472 80.7168 304.338 80.6963 304.196C80.594 303.928 80.4099 303.705 80.1439 303.504C80.0006 303.422 79.8574 303.34 79.7141 303.259C79.3765 303.117 79.0184 303.043 78.6296 303.043C78.4352 303.043 78.2511 303.043 78.0567 303.043C77.76 303.035 77.4837 303.08 77.2279 303.177C76.9619 303.236 76.7266 303.348 76.5322 303.497C76.3276 303.638 76.1741 303.809 76.0922 304.003C75.9592 304.189 75.8978 304.39 75.9081 304.606C75.9285 304.747 75.9592 304.881 75.9797 305.022C76.082 305.29 76.2662 305.514 76.5322 305.715C76.6754 305.796 76.8187 305.878 76.9619 305.96C77.2995 306.109 77.6576 306.176 78.0464 306.176Z" fill="white"/>
<path d="M92.2065 303.787C92.2065 301.778 87.9094 301.77 87.9094 303.787C87.9094 305.797 92.2065 305.797 92.2065 303.787Z" fill="white"/>
<path d="M109.354 305.863C109.354 303.854 105.057 303.847 105.057 305.863C105.057 307.873 109.354 307.88 109.354 305.863Z" fill="white"/>
<path d="M119.647 313.35C119.647 311.341 115.35 311.333 115.35 313.35C115.35 315.36 119.647 315.367 119.647 313.35Z" fill="white"/>
<path d="M124.793 322.497C124.793 320.488 120.496 320.48 120.496 322.497C120.496 324.506 124.793 324.514 124.793 322.497Z" fill="white"/>
<path d="M125.366 332.894C125.366 330.884 121.069 330.877 121.069 332.894C121.069 334.903 125.366 334.911 125.366 332.894Z" fill="white"/>
<path d="M119.074 342.457C119.074 340.448 114.777 340.44 114.777 342.457C114.777 344.474 119.074 344.474 119.074 342.457Z" fill="white"/>
<path d="M107.636 349.944C107.636 347.935 103.338 347.927 103.338 349.944C103.338 351.961 107.636 351.961 107.636 349.944Z" fill="white"/>
<path d="M91.7667 354.833C91.869 354.833 91.9815 354.833 92.0838 354.833C94.8463 354.833 94.8565 351.708 92.0838 351.708C91.9815 351.708 91.869 351.708 91.7667 351.708C89.0042 351.708 89.0042 354.833 91.7667 354.833C91.869 354.833 91.9815 354.833 92.0838 354.833C94.8463 354.833 94.8565 351.708 92.0838 351.708C91.9815 351.708 91.869 351.708 91.7667 351.708C89.0042 351.708 89.0042 354.833 91.7667 354.833Z" fill="white"/>
<path d="M71.3245 351.611C71.3245 351.753 71.3245 351.886 71.3245 352.028C71.3142 352.244 71.3756 352.445 71.5086 352.631C71.5905 352.824 71.7439 352.995 71.9486 353.137C72.1429 353.286 72.3783 353.397 72.6443 353.457C72.9 353.554 73.1763 353.598 73.473 353.591C73.6674 353.576 73.8515 353.554 74.0459 353.539C74.4143 353.464 74.7212 353.33 74.9975 353.137C75.11 353.033 75.2225 352.928 75.3351 352.824C75.5295 352.579 75.6318 352.318 75.6318 352.035C75.6318 351.894 75.6318 351.76 75.6318 351.619C75.642 351.403 75.5807 351.202 75.4476 351.016C75.3658 350.822 75.2123 350.651 75.0077 350.51C74.8133 350.361 74.578 350.249 74.312 350.19C74.0562 350.093 73.7799 350.048 73.4832 350.056C73.2888 350.078 73.1047 350.093 72.9103 350.115C72.542 350.19 72.235 350.324 71.9588 350.517C71.8462 350.621 71.7337 350.725 71.6211 350.83C71.4268 351.068 71.3245 351.328 71.3245 351.611Z" fill="white"/>
<path d="M61.3284 343.707C61.3284 341.698 57.0312 341.691 57.0312 343.707C57.0312 345.717 61.3284 345.724 61.3284 343.707Z" fill="white"/>
<path d="M52.1816 333.727C52.1816 331.718 47.8844 331.71 47.8844 333.727C47.8844 335.737 52.1816 335.744 52.1816 333.727Z" fill="white"/>
<path d="M51.0357 317.927C51.0357 315.918 46.7385 315.91 46.7385 317.927C46.7385 319.937 51.0357 319.937 51.0357 317.927Z" fill="white"/>
<path d="M59.0468 306.28C59.0468 304.271 54.7496 304.263 54.7496 306.28C54.7496 308.29 59.0468 308.297 59.0468 306.28Z" fill="white"/>
<path d="M71.6211 297.96C71.6211 295.95 67.324 295.943 67.324 297.96C67.324 299.977 71.6211 299.977 71.6211 297.96Z" fill="white"/>
<path d="M91.0607 294.216C91.0607 292.207 86.7635 292.199 86.7635 294.216C86.7635 296.233 91.0607 296.233 91.0607 294.216Z" fill="white"/>
<path d="M108.208 297.134C108.208 295.124 103.911 295.117 103.911 297.134C103.911 299.143 108.208 299.143 108.208 297.134Z" fill="white"/>
<path d="M124.793 305.03C124.793 303.02 120.496 303.013 120.496 305.03C120.496 307.047 124.793 307.047 124.793 305.03Z" fill="white"/>
<path d="M133.94 316.26C133.94 314.251 129.643 314.243 129.643 316.26C129.643 318.27 133.94 318.277 133.94 316.26Z" fill="white"/>
<path d="M138.514 334.144C138.514 332.135 134.217 332.127 134.217 334.144C134.217 336.153 138.514 336.161 138.514 334.144Z" fill="white"/>
<path d="M129.5 349.847C129.602 349.847 129.715 349.847 129.817 349.847C132.58 349.847 132.59 346.721 129.817 346.721C129.715 346.721 129.602 346.721 129.5 346.721C126.737 346.721 126.737 349.847 129.5 349.847C129.602 349.847 129.715 349.847 129.817 349.847C132.58 349.847 132.59 346.721 129.817 346.721C129.715 346.721 129.602 346.721 129.5 346.721C126.737 346.721 126.737 349.847 129.5 349.847Z" fill="white"/>
<path d="M116.22 357.431C116.22 355.421 111.922 355.414 111.922 357.431C111.922 359.44 116.22 359.448 116.22 357.431Z" fill="white"/>
<path d="M93.9152 363.668C93.9152 361.658 89.618 361.651 89.618 363.668C89.618 365.684 93.9152 365.684 93.9152 363.668Z" fill="white"/>
<path d="M72.767 363.251C72.767 361.241 68.4698 361.234 68.4698 363.251C68.4698 365.268 72.767 365.268 72.767 363.251Z" fill="white"/>
<path d="M57.9009 354.938C57.9009 352.928 53.6038 352.921 53.6038 354.938C53.6038 356.947 57.9009 356.955 57.9009 354.938Z" fill="white"/>
<path d="M47.0353 345.374C47.0353 343.365 42.7382 343.357 42.7382 345.374C42.7382 347.384 47.0353 347.384 47.0353 345.374Z" fill="white"/>
<path d="M40.8862 326.761C40.6918 326.761 40.5077 326.761 40.3133 326.761C40.0166 326.754 39.7403 326.798 39.4845 326.895C39.2185 326.955 38.9832 327.066 38.7888 327.215C38.5841 327.357 38.4307 327.528 38.3488 327.721C38.2158 327.907 38.1544 328.108 38.1647 328.324C38.1851 328.466 38.2158 328.6 38.2363 328.741C38.3386 329.009 38.5228 329.232 38.7888 329.433C38.932 329.515 39.0753 329.597 39.2185 329.679C39.5561 329.82 39.9142 329.894 40.303 329.894C40.4974 329.894 40.6816 329.894 40.876 329.894C41.1727 329.902 41.4489 329.857 41.7047 329.76C41.9707 329.701 42.206 329.589 42.4004 329.44C42.6051 329.299 42.7585 329.128 42.8404 328.934C42.9734 328.748 43.0348 328.547 43.0246 328.332C43.0041 328.19 42.9734 328.056 42.9529 327.915C42.8506 327.647 42.6665 327.424 42.4004 327.223C42.2572 327.141 42.114 327.059 41.9707 326.977C41.6331 326.828 41.275 326.761 40.8862 326.761Z" fill="white"/>
<path d="M46.4623 310.44C46.4623 308.431 42.1652 308.424 42.1652 310.44C42.1652 312.45 46.4623 312.45 46.4623 310.44Z" fill="white"/>
<path d="M101.926 328.733C101.926 326.724 97.6293 326.717 97.6293 328.733C97.6293 330.75 101.926 330.75 101.926 328.733Z" fill="white"/>
<path d="M84.7684 347.451C84.7684 345.441 80.4713 345.434 80.4713 347.451C80.4713 349.46 84.7684 349.468 84.7684 347.451Z" fill="white"/>
<path d="M84.7684 357.848C84.7684 355.838 80.4713 355.831 80.4713 357.848C80.4713 359.857 84.7684 359.864 84.7684 357.848Z" fill="white"/>
<path d="M104.208 357.431C104.208 355.421 99.9109 355.414 99.9109 357.431C99.9109 359.44 104.208 359.448 104.208 357.431Z" fill="white"/>
<path d="M98.2021 343.291C98.2021 343.432 98.2021 343.566 98.2021 343.707C98.1919 343.923 98.2533 344.124 98.3863 344.31C98.4682 344.504 98.6216 344.675 98.8262 344.816C99.0206 344.965 99.256 345.077 99.522 345.136C99.7778 345.233 100.054 345.278 100.351 345.27C100.545 345.255 100.729 345.233 100.924 345.218C101.292 345.144 101.599 345.01 101.875 344.816C101.988 344.712 102.1 344.608 102.213 344.504C102.407 344.258 102.509 343.998 102.509 343.715C102.509 343.573 102.509 343.439 102.509 343.298C102.52 343.082 102.458 342.881 102.325 342.695C102.243 342.502 102.09 342.33 101.885 342.189C101.691 342.04 101.456 341.929 101.19 341.869C100.934 341.772 100.658 341.728 100.361 341.735C100.167 341.75 99.9824 341.772 99.788 341.787C99.4197 341.862 99.1127 341.996 98.8365 342.189C98.7239 342.293 98.6114 342.397 98.4989 342.502C98.2942 342.747 98.2021 343.008 98.2021 343.291Z" fill="white"/>
<path d="M119.647 349.944C119.647 347.935 115.35 347.927 115.35 349.944C115.35 351.961 119.647 351.961 119.647 349.944Z" fill="white"/>
<path d="M132.221 340.381C132.221 338.371 127.924 338.364 127.924 340.381C127.924 342.39 132.221 342.397 132.221 340.381Z" fill="white"/>
<path d="M115.074 331.234C115.074 329.225 110.776 329.217 110.776 331.234C110.776 333.244 115.074 333.244 115.074 331.234Z" fill="white"/>
<path d="M133.94 327.074C133.94 325.065 129.643 325.057 129.643 327.074C129.643 329.083 133.94 329.091 133.94 327.074Z" fill="white"/>
<path d="M95.6341 312.517C95.6341 310.507 91.3369 310.5 91.3369 312.517C91.3369 314.526 95.6341 314.534 95.6341 312.517Z" fill="white"/>
<path d="M63.6203 336.22C63.6203 334.211 59.3231 334.204 59.3231 336.22C59.3231 338.23 63.6203 338.237 63.6203 336.22Z" fill="white"/>
<path d="M55.6091 326.24C55.6091 324.231 51.3119 324.224 51.3119 326.24C51.3119 328.25 55.6091 328.257 55.6091 326.24Z" fill="white"/>
<path d="M75.0486 317.511C75.0486 315.501 70.7515 315.494 70.7515 317.511C70.7515 319.52 75.0486 319.52 75.0486 317.511Z" fill="white"/>
<path d="M56.4584 312.1C56.4584 312.241 56.4584 312.375 56.4584 312.517C56.4481 312.732 56.5095 312.933 56.6425 313.119C56.7244 313.313 56.8778 313.484 57.0825 313.626C57.2769 313.774 57.5122 313.886 57.7782 313.946C58.034 314.042 58.3102 314.087 58.6069 314.08C58.8013 314.065 58.9855 314.042 59.1799 314.027C59.5482 313.953 59.8552 313.819 60.1314 313.626C60.244 313.521 60.3565 313.417 60.469 313.313C60.6634 313.067 60.7657 312.807 60.7657 312.524C60.7657 312.383 60.7657 312.249 60.7657 312.107C60.776 311.891 60.7146 311.691 60.5816 311.504C60.4997 311.311 60.3462 311.14 60.1416 310.998C59.9472 310.85 59.7119 310.738 59.4459 310.678C59.1901 310.582 58.9139 310.537 58.6172 310.544C58.4228 310.567 58.2386 310.582 58.0442 310.604C57.6759 310.678 57.369 310.812 57.0927 311.006C56.9802 311.11 56.8676 311.214 56.7551 311.318C56.5607 311.557 56.4584 311.817 56.4584 312.1Z" fill="white"/>
<path d="M71.0481 305.863C71.0481 303.854 66.751 303.847 66.751 305.863C66.751 307.873 71.0481 307.88 71.0481 305.863Z" fill="white"/>
<path d="M98.6319 301.19C98.8263 301.19 99.0105 301.19 99.2049 301.19C99.5016 301.197 99.7778 301.152 100.034 301.056C100.3 300.996 100.535 300.884 100.729 300.736C100.934 300.594 101.087 300.423 101.169 300.23C101.302 300.044 101.364 299.843 101.353 299.627C101.333 299.485 101.302 299.351 101.282 299.21C101.18 298.942 100.995 298.719 100.729 298.518C100.586 298.436 100.443 298.354 100.3 298.272C99.962 298.131 99.6039 298.056 99.2151 298.056C99.0207 298.056 98.8365 298.056 98.6421 298.056C98.3454 298.049 98.0692 298.094 97.8134 298.19C97.5474 298.25 97.3121 298.362 97.1177 298.51C96.913 298.652 96.7596 298.823 96.6777 299.016C96.5447 299.203 96.4833 299.403 96.4935 299.619C96.5242 299.761 96.5447 299.895 96.5754 300.036C96.6777 300.304 96.8619 300.527 97.1279 300.728C97.2711 300.81 97.4144 300.892 97.5576 300.974C97.885 301.115 98.2431 301.19 98.6319 301.19Z" fill="white"/>
<path d="M85.3415 299.21C85.3415 297.2 81.0443 297.193 81.0443 299.21C81.0443 301.219 85.3415 301.227 85.3415 299.21Z" fill="white"/>
<path d="M53.9005 300.877C53.9005 298.868 49.6033 298.86 49.6033 300.877C49.6033 302.886 53.9005 302.886 53.9005 300.877Z" fill="white"/>
<path d="M418.973 388.434C418.973 389.572 417.705 390.495 416.139 390.495C414.574 390.495 413.305 389.572 413.305 388.434C413.305 387.295 414.574 386.372 416.139 386.372C417.705 386.372 418.973 387.295 418.973 388.434Z" fill="#5776C8"/>
<path d="M418.973 398.741C418.973 399.88 417.705 400.803 416.139 400.803C414.574 400.803 413.305 399.88 413.305 398.741C413.305 397.603 414.574 396.68 416.139 396.68C417.705 396.68 418.973 397.603 418.973 398.741Z" fill="#FE81BB"/>
<path d="M418.973 411.11C418.973 412.249 417.705 413.172 416.139 413.172C414.574 413.172 413.305 412.249 413.305 411.11C413.305 409.972 414.574 409.049 416.139 409.049C417.705 409.049 418.973 409.972 418.973 411.11Z" fill="#FF4E10"/>
<path d="M418.973 421.41C418.973 422.549 417.705 423.472 416.139 423.472C414.574 423.472 413.305 422.549 413.305 421.41C413.305 420.272 414.574 419.349 416.139 419.349C417.705 419.349 418.973 420.272 418.973 421.41Z" fill="#5776C8"/>
<path d="M418.973 433.073C418.973 434.211 417.705 435.134 416.139 435.134C414.574 435.134 413.305 434.211 413.305 433.073C413.305 431.934 414.574 431.011 416.139 431.011C417.705 431.011 418.973 431.934 418.973 433.073Z" fill="#FE81BB"/>
<path d="M418.973 443.38C418.973 444.519 417.705 445.442 416.139 445.442C414.574 445.442 413.305 444.519 413.305 443.38C413.305 442.241 414.574 441.319 416.139 441.319C417.705 441.319 418.973 442.241 418.973 443.38Z" fill="#FF4E10"/>
<path d="M418.973 455.131C418.973 456.27 417.705 457.193 416.139 457.193C414.574 457.193 413.305 456.27 413.305 455.131C413.305 453.993 414.574 453.07 416.139 453.07C417.705 453.07 418.973 453.993 418.973 455.131Z" fill="#5776C8"/>
<path d="M418.973 465.439C418.973 466.578 417.705 467.5 416.139 467.5C414.574 467.5 413.305 466.578 413.305 465.439C413.305 464.3 414.574 463.377 416.139 463.377C417.705 463.377 418.973 464.3 418.973 465.439Z" fill="#FE81BB"/>
<path d="M407.269 388.434C407.269 387.295 406 386.372 404.435 386.372C402.869 386.372 401.6 387.295 401.6 388.434C401.6 389.572 402.869 390.495 404.435 390.495C406 390.495 407.269 389.572 407.269 388.434Z" fill="white"/>
<path d="M407.269 398.741C407.269 397.603 406 396.68 404.435 396.68C402.869 396.68 401.6 397.603 401.6 398.741C401.6 399.88 402.869 400.803 404.435 400.803C406 400.803 407.269 399.88 407.269 398.741Z" fill="white"/>
<path d="M407.269 411.11C407.269 409.972 406 409.049 404.435 409.049C402.869 409.049 401.6 409.972 401.6 411.11C401.6 412.249 402.869 413.172 404.435 413.172C406 413.172 407.269 412.249 407.269 411.11Z" fill="white"/>
<path d="M407.269 421.41C407.269 422.549 406 423.472 404.435 423.472C402.869 423.472 401.6 422.549 401.6 421.41C401.6 420.272 402.869 419.349 404.435 419.349C406 419.349 407.269 420.272 407.269 421.41Z" fill="white"/>
<path d="M407.269 433.073C407.269 434.211 406 435.134 404.435 435.134C402.869 435.134 401.6 434.211 401.6 433.073C401.6 431.934 402.869 431.011 404.435 431.011C406 431.011 407.269 431.934 407.269 433.073Z" fill="white"/>
<path d="M407.269 443.38C407.269 442.242 406 441.319 404.435 441.319C402.869 441.319 401.6 442.242 401.6 443.38C401.6 444.519 402.869 445.442 404.435 445.442C406 445.442 407.269 444.519 407.269 443.38Z" fill="white"/>
<path d="M407.269 455.131C407.269 453.993 406 453.07 404.435 453.07C402.869 453.07 401.6 453.993 401.6 455.131C401.6 456.27 402.869 457.193 404.435 457.193C406 457.193 407.269 456.27 407.269 455.131Z" fill="white"/>
<path d="M407.269 465.439C407.269 464.3 406 463.377 404.435 463.377C402.869 463.377 401.6 464.3 401.6 465.439C401.6 466.578 402.869 467.5 404.435 467.5C406 467.5 407.269 466.578 407.269 465.439Z" fill="white"/>
<path d="M395.431 388.434C395.431 389.572 394.162 390.495 392.597 390.495C391.031 390.495 389.763 389.572 389.763 388.434C389.763 387.295 391.031 386.372 392.597 386.372C394.162 386.372 395.431 387.295 395.431 388.434Z" fill="#FF4E10"/>
<path d="M395.431 398.741C395.431 399.88 394.162 400.803 392.597 400.803C391.031 400.803 389.763 399.88 389.763 398.741C389.763 397.603 391.031 396.68 392.597 396.68C394.162 396.68 395.431 397.603 395.431 398.741Z" fill="#5776C8"/>
<path d="M395.431 411.11C395.431 412.249 394.162 413.172 392.597 413.172C391.031 413.172 389.763 412.249 389.763 411.11C389.763 409.972 391.031 409.049 392.597 409.049C394.162 409.049 395.431 409.972 395.431 411.11Z" fill="#FE81BB"/>
<path d="M395.431 421.41C395.431 422.549 394.162 423.472 392.597 423.472C391.031 423.472 389.763 422.549 389.763 421.41C389.763 420.272 391.031 419.349 392.597 419.349C394.162 419.349 395.431 420.272 395.431 421.41Z" fill="#FF4E10"/>
<path d="M395.431 433.073C395.431 434.211 394.162 435.134 392.597 435.134C391.031 435.134 389.763 434.211 389.763 433.073C389.763 431.934 391.031 431.011 392.597 431.011C394.162 431.011 395.431 431.934 395.431 433.073Z" fill="#5776C8"/>
<path d="M395.431 443.38C395.431 444.519 394.162 445.442 392.597 445.442C391.031 445.442 389.763 444.519 389.763 443.38C389.763 442.241 391.031 441.319 392.597 441.319C394.162 441.319 395.431 442.241 395.431 443.38Z" fill="#FE81BB"/>
<path d="M395.431 455.131C395.431 456.27 394.162 457.193 392.597 457.193C391.031 457.193 389.763 456.27 389.763 455.131C389.763 453.993 391.031 453.07 392.597 453.07C394.162 453.07 395.431 453.993 395.431 455.131Z" fill="#FF4E10"/>
<path d="M395.431 465.439C395.431 466.578 394.162 467.5 392.597 467.5C391.031 467.5 389.763 466.578 389.763 465.439C389.763 464.3 391.031 463.377 392.597 463.377C394.162 463.377 395.431 464.3 395.431 465.439Z" fill="#5776C8"/>
<path d="M383.726 388.434C383.726 387.295 382.457 386.372 380.892 386.372C379.327 386.372 378.058 387.295 378.058 388.434C378.058 389.572 379.327 390.495 380.892 390.495C382.457 390.495 383.726 389.572 383.726 388.434Z" fill="white"/>
<path d="M383.726 398.741C383.726 397.603 382.457 396.68 380.892 396.68C379.327 396.68 378.058 397.603 378.058 398.741C378.058 399.88 379.327 400.803 380.892 400.803C382.457 400.803 383.726 399.88 383.726 398.741Z" fill="white"/>
<path d="M383.726 411.11C383.726 409.972 382.457 409.049 380.892 409.049C379.327 409.049 378.058 409.972 378.058 411.11C378.058 412.249 379.327 413.172 380.892 413.172C382.457 413.172 383.726 412.249 383.726 411.11Z" fill="white"/>
<path d="M383.726 421.41C383.726 422.549 382.458 423.472 380.892 423.472C379.327 423.472 378.058 422.549 378.058 421.41C378.058 420.272 379.327 419.349 380.892 419.349C382.458 419.349 383.726 420.272 383.726 421.41Z" fill="white"/>
<path d="M383.726 433.073C383.726 434.211 382.458 435.134 380.892 435.134C379.327 435.134 378.058 434.211 378.058 433.073C378.058 431.934 379.327 431.011 380.892 431.011C382.458 431.011 383.726 431.934 383.726 433.073Z" fill="white"/>
<path d="M383.726 443.38C383.726 442.242 382.457 441.319 380.892 441.319C379.327 441.319 378.058 442.242 378.058 443.38C378.058 444.519 379.327 445.442 380.892 445.442C382.457 445.442 383.726 444.519 383.726 443.38Z" fill="white"/>
<path d="M383.726 455.131C383.726 453.993 382.457 453.07 380.892 453.07C379.327 453.07 378.058 453.993 378.058 455.131C378.058 456.27 379.327 457.193 380.892 457.193C382.457 457.193 383.726 456.27 383.726 455.131Z" fill="white"/>
<path d="M383.726 465.439C383.726 464.3 382.457 463.377 380.892 463.377C379.327 463.377 378.058 464.3 378.058 465.439C378.058 466.578 379.327 467.5 380.892 467.5C382.457 467.5 383.726 466.578 383.726 465.439Z" fill="white"/>
<path d="M164.58 458.075H279.775C279.775 434.937 253.992 416.175 222.173 416.175C190.374 416.183 164.58 434.937 164.58 458.075Z" fill="#39A3B1"/>
<path d="M164.58 439.98H279.775C279.775 416.842 253.992 398.08 222.173 398.08C190.374 398.08 164.58 416.842 164.58 439.98Z" stroke="white" stroke-width="2" stroke-miterlimit="10"/>
<path d="M174.121 499.726L197.974 487.221L221.826 474.716V499.726V524.742L197.974 512.238L174.121 499.726Z" fill="#FE81BB"/>
<path d="M293.272 484.182C293.272 473.663 281.549 465.137 267.09 465.137C252.63 465.137 240.908 473.663 240.908 484.182C240.908 494.7 252.63 503.226 267.09 503.226C281.549 503.226 293.272 494.7 293.272 484.182Z" stroke="white" stroke-width="2" stroke-miterlimit="10"/>
<path d="M85.3518 48.8945C85.3518 50.0332 84.0831 50.9561 82.5177 50.9561C80.9523 50.9561 79.6836 50.0332 79.6836 48.8945C79.6836 47.7559 80.9523 46.833 82.5177 46.833C84.0831 46.8405 85.3518 47.7633 85.3518 48.8945Z" fill="white"/>
<path d="M85.3518 59.2022C85.3518 60.3408 84.0831 61.2637 82.5177 61.2637C80.9523 61.2637 79.6836 60.3408 79.6836 59.2022C79.6836 58.0635 80.9523 57.1407 82.5177 57.1407C84.0831 57.1407 85.3518 58.0635 85.3518 59.2022Z" fill="white"/>
<path d="M85.3518 71.5713C85.3518 72.71 84.0831 73.6328 82.5177 73.6328C80.9523 73.6328 79.6836 72.71 79.6836 71.5713C79.6836 70.4326 80.9523 69.5098 82.5177 69.5098C84.0831 69.5098 85.3518 70.4326 85.3518 71.5713Z" fill="white"/>
<path d="M85.3518 81.8787C85.3518 83.0173 84.0831 83.9402 82.5177 83.9402C80.9523 83.9402 79.6836 83.0173 79.6836 81.8787C79.6836 80.74 80.9523 79.8171 82.5177 79.8171C84.0831 79.8171 85.3518 80.74 85.3518 81.8787Z" fill="white"/>
<path d="M85.3518 93.5408C85.3518 94.6795 84.0831 95.6023 82.5177 95.6023C80.9523 95.6023 79.6836 94.6795 79.6836 93.5408C79.6836 92.4021 80.9523 91.4793 82.5177 91.4793C84.0831 91.4793 85.3518 92.4021 85.3518 93.5408Z" fill="white"/>
<path d="M85.3518 103.848C85.3518 104.987 84.0831 105.91 82.5177 105.91C80.9523 105.91 79.6836 104.987 79.6836 103.848C79.6836 102.71 80.9523 101.787 82.5177 101.787C84.0831 101.787 85.3518 102.71 85.3518 103.848Z" fill="white"/>
<path d="M85.3518 115.6C85.3518 116.738 84.0831 117.661 82.5177 117.661C80.9523 117.661 79.6836 116.738 79.6836 115.6C79.6836 114.461 80.9523 113.538 82.5177 113.538C84.0831 113.538 85.3518 114.461 85.3518 115.6Z" fill="white"/>
<path d="M85.3518 125.907C85.3518 127.046 84.0831 127.969 82.5177 127.969C80.9523 127.969 79.6836 127.046 79.6836 125.907C79.6836 124.769 80.9523 123.846 82.5177 123.846C84.0831 123.846 85.3518 124.769 85.3518 125.907Z" fill="white"/>
<path d="M73.647 48.8945C73.647 50.0332 72.3783 50.9561 70.8129 50.9561C69.2476 50.9561 67.9789 50.0332 67.9789 48.8945C67.9789 47.7559 69.2476 46.833 70.8129 46.833C72.3783 46.8405 73.647 47.7633 73.647 48.8945Z" fill="white"/>
<path d="M73.647 59.2022C73.647 58.0636 72.3782 57.1407 70.8129 57.1407C69.2477 57.1407 67.9789 58.0636 67.9789 59.2022C67.9789 60.3407 69.2477 61.2637 70.8129 61.2637C72.3782 61.2637 73.647 60.3407 73.647 59.2022Z" fill="white"/>
<path d="M73.647 71.5713C73.647 72.71 72.3783 73.6328 70.8129 73.6328C69.2476 73.6328 67.9789 72.71 67.9789 71.5713C67.9789 70.4326 69.2476 69.5098 70.8129 69.5098C72.3783 69.5098 73.647 70.4326 73.647 71.5713Z" fill="white"/>
<path d="M73.647 81.8787C73.647 80.7401 72.3782 79.8171 70.8129 79.8171C69.2477 79.8171 67.9789 80.7401 67.9789 81.8787C67.9789 83.0172 69.2477 83.9402 70.8129 83.9402C72.3782 83.9402 73.647 83.0172 73.647 81.8787Z" fill="white"/>
<path d="M73.647 93.5408C73.647 92.4023 72.3782 91.4793 70.8129 91.4793C69.2477 91.4793 67.9789 92.4023 67.9789 93.5408C67.9789 94.6793 69.2477 95.6023 70.8129 95.6023C72.3782 95.6023 73.647 94.6793 73.647 93.5408Z" fill="white"/>
<path d="M73.647 103.848C73.647 102.71 72.3782 101.787 70.8129 101.787C69.2477 101.787 67.9789 102.71 67.9789 103.848C67.9789 104.987 69.2477 105.91 70.8129 105.91C72.3782 105.91 73.647 104.987 73.647 103.848Z" fill="white"/>
<path d="M73.647 115.6C73.647 114.461 72.3782 113.538 70.8129 113.538C69.2477 113.538 67.9789 114.461 67.9789 115.6C67.9789 116.738 69.2477 117.661 70.8129 117.661C72.3782 117.661 73.647 116.738 73.647 115.6Z" fill="white"/>
<path d="M73.647 125.907C73.647 124.769 72.3782 123.846 70.8129 123.846C69.2477 123.846 67.9789 124.769 67.9789 125.907C67.9789 127.046 69.2477 127.969 70.8129 127.969C72.3782 127.969 73.647 127.046 73.647 125.907Z" fill="white"/>
<path d="M36.2266 240.848C30.8858 237.507 30.8858 231.493 36.2266 228.159C41.5674 224.825 41.5674 218.812 36.2266 215.47H36.2164C30.8756 212.136 30.8756 206.122 36.2164 202.781C41.5571 199.447 41.5571 193.433 36.2164 190.092H36.2061C30.8654 186.758 30.8654 180.744 36.2061 177.403L36.2164 177.395C41.5571 174.061 41.5571 168.048 36.2164 164.706L36.2061 164.699C30.8654 161.365 30.8654 155.351 36.2061 152.01L36.2164 152.002C41.5571 148.668 41.5571 142.655 36.2164 139.313L36.2061 139.306C30.8654 135.972 30.8654 129.958 36.2061 126.624L36.2266 126.617C38.897 124.95 40.227 122.613 40.227 120.276" stroke="#5776C8" stroke-width="8.3815" stroke-miterlimit="10"/>
<path d="M34.7487 117.083L23.8523 126.921L34.7487 136.76L23.8523 146.599L34.7487 156.437L23.8523 166.276L34.7487 176.115L23.8523 185.953L34.7487 195.792L23.8523 205.631L34.7487 215.477L23.8523 225.316L34.7487 235.162L23.8523 245.008" stroke="white" stroke-width="1.331" stroke-miterlimit="10"/>
<path d="M68.6861 117.083L57.7897 126.921L68.6861 136.76L57.7897 146.599L68.6861 156.437L57.7897 166.276L68.6861 176.115L57.7897 185.953L68.6861 195.792L57.7897 205.631L68.6861 215.477L57.7897 225.316L68.6861 235.162L57.7897 245.008" stroke="white" stroke-width="0.6655" stroke-miterlimit="10"/>
<path d="M52.234 117.083L41.3376 126.921L52.234 136.76L41.3376 146.599L52.234 156.437L41.3376 166.276L52.234 176.115L41.3376 185.953L52.234 195.792L41.3376 205.631L52.234 215.477L41.3376 225.316L52.234 235.162L41.3376 245.008" stroke="white" stroke-width="2.6621" stroke-miterlimit="10"/>
<path d="M131.294 224.223C112.91 220.896 93.955 230.049 88.9561 244.666C83.9573 259.282 94.8079 273.828 113.191 277.155C131.575 280.482 150.53 271.329 155.529 256.712C160.528 242.095 149.678 227.549 131.294 224.223Z" fill="#FE81BB"/>
<path d="M132.917 196.902C116.747 185.14 91.3843 184.519 76.2679 195.514C61.1514 206.51 62.0055 224.959 78.1754 236.721C94.3454 248.483 119.708 249.104 134.825 238.109C149.941 227.113 149.087 208.664 132.917 196.902Z" stroke="white" stroke-width="2" stroke-miterlimit="10"/>
<path d="M115.962 261.445C100.309 250.059 74.145 250.629 57.5244 262.719C40.9038 274.808 40.12 293.84 55.7738 305.226C71.4275 316.613 97.5911 316.043 114.212 303.953C130.832 291.863 131.616 272.832 115.962 261.445Z" stroke="white" stroke-width="2" stroke-miterlimit="10" stroke-dasharray="2.65 2.65"/>
<path d="M382.816 502.359C382.816 510.248 374.027 516.641 363.182 516.641C352.336 516.641 343.548 510.248 343.548 502.359" stroke="white" stroke-width="2" stroke-miterlimit="10"/>
<path d="M377.25 502.947C377.25 508.603 370.947 513.188 363.171 513.188C355.396 513.188 349.093 508.603 349.093 502.947" stroke="white" stroke-width="2" stroke-miterlimit="10"/>
<path d="M343.384 502.359C343.384 510.248 334.595 516.641 323.75 516.641C312.905 516.641 304.116 510.248 304.116 502.359" stroke="white" stroke-width="2" stroke-miterlimit="10"/>
<path d="M337.828 502.947C337.828 508.603 331.526 513.188 323.75 513.188C315.974 513.188 309.672 508.603 309.672 502.947" stroke="white" stroke-width="2" stroke-miterlimit="10"/>
<path d="M422.421 502.359C422.421 510.248 413.632 516.641 402.787 516.641C391.942 516.641 383.153 510.248 383.153 502.359" stroke="white" stroke-width="2" stroke-miterlimit="10"/>
<path d="M416.855 502.947C416.855 508.603 410.553 513.188 402.777 513.188C395.001 513.188 388.698 508.603 388.698 502.947" stroke="white" stroke-width="2" stroke-miterlimit="10"/>
<path d="M382.816 492.811C382.816 500.7 374.027 507.093 363.182 507.093C352.336 507.093 343.548 500.7 343.548 492.811" stroke="white" stroke-width="2" stroke-miterlimit="10"/>
<path d="M377.25 493.406C377.25 499.062 370.947 503.647 363.171 503.647C355.396 503.647 349.093 499.062 349.093 493.406" stroke="white" stroke-width="2" stroke-miterlimit="10"/>
<path d="M343.384 492.811C343.384 500.7 334.595 507.093 323.75 507.093C312.905 507.093 304.116 500.7 304.116 492.811" stroke="white" stroke-width="2" stroke-miterlimit="10"/>
<path d="M337.828 493.406C337.828 499.062 331.526 503.647 323.75 503.647C315.974 503.647 309.672 499.062 309.672 493.406" stroke="white" stroke-width="2" stroke-miterlimit="10"/>
<path d="M422.421 492.811C422.421 500.7 413.632 507.093 402.787 507.093C391.942 507.093 383.153 500.7 383.153 492.811" stroke="white" stroke-width="2" stroke-miterlimit="10"/>
<path d="M416.855 493.406C416.855 499.062 410.553 503.647 402.777 503.647C395.001 503.647 388.698 499.062 388.698 493.406" stroke="white" stroke-width="2" stroke-miterlimit="10"/>
<path d="M425.745 325.032C425.745 325.769 424.916 326.379 423.893 326.379H410.009C408.986 326.379 408.157 325.776 408.157 325.032C408.157 324.288 408.986 323.685 410.009 323.685H423.893C424.916 323.685 425.745 324.288 425.745 325.032Z" fill="white"/>
<path d="M416.956 331.425C415.933 331.425 415.104 330.822 415.104 330.078V319.979C415.104 319.234 415.933 318.631 416.956 318.631C417.979 318.631 418.808 319.234 418.808 319.979V330.078C418.808 330.822 417.969 331.425 416.956 331.425Z" fill="white"/>
<path d="M425.745 307.014C425.745 307.751 424.916 308.361 423.893 308.361H410.009C408.986 308.361 408.157 307.758 408.157 307.014C408.157 306.27 408.986 305.667 410.009 305.667H423.893C424.916 305.667 425.745 306.27 425.745 307.014Z" fill="white"/>
<path d="M416.956 313.407C415.933 313.407 415.104 312.804 415.104 312.06V301.961C415.104 301.217 415.933 300.614 416.956 300.614C417.979 300.614 418.808 301.217 418.808 301.961V312.06C418.808 312.804 417.969 313.407 416.956 313.407Z" fill="white"/>
<path d="M425.745 288.989C425.745 289.726 424.916 290.336 423.893 290.336H410.009C408.986 290.336 408.157 289.733 408.157 288.989C408.157 288.245 408.986 287.642 410.009 287.642H423.893C424.916 287.642 425.745 288.252 425.745 288.989Z" fill="white"/>
<path d="M416.956 295.389C415.933 295.389 415.104 294.787 415.104 294.042V283.943C415.104 283.199 415.933 282.596 416.956 282.596C417.979 282.596 418.808 283.199 418.808 283.943V294.042C418.808 294.779 417.969 295.389 416.956 295.389Z" fill="white"/>
<path d="M425.745 271.433C425.745 272.17 424.916 272.78 423.893 272.78H410.009C408.986 272.78 408.157 272.177 408.157 271.433C408.157 270.688 408.986 270.086 410.009 270.086H423.893C424.916 270.086 425.745 270.688 425.745 271.433Z" fill="white"/>
<path d="M416.956 277.825C415.933 277.825 415.104 277.223 415.104 276.478V266.379C415.104 265.635 415.933 265.032 416.956 265.032C417.979 265.032 418.808 265.635 418.808 266.379V276.478C418.808 277.223 417.969 277.825 416.956 277.825Z" fill="white"/>
<path d="M401.609 325.032C401.609 325.769 400.78 326.379 399.757 326.379H385.873C384.85 326.379 384.021 325.776 384.021 325.032C384.021 324.288 384.85 323.685 385.873 323.685H399.757C400.77 323.685 401.609 324.288 401.609 325.032Z" fill="white"/>
<path d="M392.81 331.425C391.787 331.425 390.958 330.822 390.958 330.078V319.979C390.958 319.234 391.787 318.631 392.81 318.631C393.833 318.631 394.662 319.234 394.662 319.979V330.078C394.662 330.822 393.833 331.425 392.81 331.425Z" fill="white"/>
<path d="M401.609 307.014C401.609 307.751 400.78 308.361 399.757 308.361H385.873C384.85 308.361 384.021 307.758 384.021 307.014C384.021 306.27 384.85 305.667 385.873 305.667H399.757C400.77 305.667 401.609 306.27 401.609 307.014Z" fill="white"/>
<path d="M392.81 313.407C391.787 313.407 390.958 312.804 390.958 312.06V301.961C390.958 301.217 391.787 300.614 392.81 300.614C393.833 300.614 394.662 301.217 394.662 301.961V312.06C394.662 312.804 393.833 313.407 392.81 313.407Z" fill="white"/>
<path d="M401.609 288.989C401.609 289.726 400.78 290.336 399.757 290.336H385.873C384.85 290.336 384.021 289.733 384.021 288.989C384.021 288.245 384.85 287.642 385.873 287.642H399.757C400.77 287.642 401.609 288.252 401.609 288.989Z" fill="white"/>
<path d="M392.81 295.389C391.787 295.389 390.958 294.787 390.958 294.042V283.943C390.958 283.199 391.787 282.596 392.81 282.596C393.833 282.596 394.662 283.199 394.662 283.943V294.042C394.662 294.779 393.833 295.389 392.81 295.389Z" fill="white"/>
<path d="M401.609 271.433C401.609 272.17 400.78 272.78 399.757 272.78H385.873C384.85 272.78 384.021 272.177 384.021 271.433C384.021 270.688 384.85 270.086 385.873 270.086H399.757C400.77 270.086 401.609 270.688 401.609 271.433Z" fill="white"/>
<path d="M392.81 277.825C391.787 277.825 390.958 277.223 390.958 276.478V266.379C390.958 265.635 391.787 265.032 392.81 265.032C393.833 265.032 394.662 265.635 394.662 266.379V276.478C394.662 277.223 393.833 277.825 392.81 277.825Z" fill="white"/>
</svg>
