<svg width="36" height="33" viewBox="0 0 36 33" fill="none" xmlns="http://www.w3.org/2000/svg">
<g filter="url(#filter0_d)">
<path d="M11.8043 25.4989V17.9937H17.8085V25.4989C17.8085 26.3245 18.484 27 19.3096 27H23.8127C24.6383 27 25.3138 26.3245 25.3138 25.4989V14.9916H27.8656C28.5561 14.9916 28.8863 14.136 28.3609 13.6857L15.8121 2.38277C15.2417 1.87241 14.3711 1.87241 13.8007 2.38277L1.25195 13.6857C0.741597 14.136 1.05682 14.9916 1.7473 14.9916H4.29909V25.4989C4.29909 26.3245 4.97456 27 5.80014 27H10.3033C11.1289 27 11.8043 26.3245 11.8043 25.4989Z" fill="black"/>
</g>
<defs>
<filter id="filter0_d" x="0" y="0" width="35.6196" height="33" filterUnits="userSpaceOnUse" color-interpolation-filters="sRGB">
<feFlood flood-opacity="0" result="BackgroundImageFix"/>
<feColorMatrix in="SourceAlpha" type="matrix" values="0 0 0 0 0 0 0 0 0 0 0 0 0 0 0 0 0 0 127 0"/>
<feOffset dx="3" dy="2"/>
<feGaussianBlur stdDeviation="2"/>
<feColorMatrix type="matrix" values="0 0 0 0 0 0 0 0 0 0 0 0 0 0 0 0 0 0 0.25 0"/>
<feBlend mode="normal" in2="BackgroundImageFix" result="effect1_dropShadow"/>
<feBlend mode="normal" in="SourceGraphic" in2="effect1_dropShadow" result="shape"/>
</filter>
</defs>
</svg>
