<svg width="31" height="33" viewBox="0 0 31 33" fill="none" xmlns="http://www.w3.org/2000/svg">
<g filter="url(#filter0_d)">
<path d="M9.55 21.3375L11.9375 18.95L14.325 21.3375C14.6875 21.7 15.2875 21.7 15.65 21.3375C16.0125 20.975 16.0125 20.375 15.65 20.0125L13.2625 17.625L15.65 15.2375C16.0125 14.875 16.0125 14.275 15.65 13.9125C15.2875 13.55 14.6875 13.55 14.325 13.9125L11.9375 16.3L9.55 13.9125C9.1875 13.55 8.5875 13.55 8.225 13.9125C7.8625 14.275 7.8625 14.875 8.225 15.2375L10.6125 17.625L8.225 20.0125C7.8625 20.375 7.8625 20.975 8.225 21.3375C8.5875 21.7 9.1875 21.7 9.55 21.3375ZM21 4.5H19.75V3.25C19.75 2.5625 19.1875 2 18.5 2C17.8125 2 17.25 2.5625 17.25 3.25V4.5H7.25V3.25C7.25 2.5625 6.6875 2 6 2C5.3125 2 4.75 2.5625 4.75 3.25V4.5H3.5C2.1125 4.5 1.0125 5.625 1.0125 7L1 24.5C1 25.875 2.1125 27 3.5 27H21C22.375 27 23.5 25.875 23.5 24.5V7C23.5 5.625 22.375 4.5 21 4.5ZM19.75 24.5H4.75C4.0625 24.5 3.5 23.9375 3.5 23.25V10.75H21V23.25C21 23.9375 20.4375 24.5 19.75 24.5Z" fill="black"/>
</g>
<defs>
<filter id="filter0_d" x="0" y="0" width="30.5" height="33" filterUnits="userSpaceOnUse" color-interpolation-filters="sRGB">
<feFlood flood-opacity="0" result="BackgroundImageFix"/>
<feColorMatrix in="SourceAlpha" type="matrix" values="0 0 0 0 0 0 0 0 0 0 0 0 0 0 0 0 0 0 127 0"/>
<feOffset dx="3" dy="2"/>
<feGaussianBlur stdDeviation="2"/>
<feColorMatrix type="matrix" values="0 0 0 0 0 0 0 0 0 0 0 0 0 0 0 0 0 0 0.25 0"/>
<feBlend mode="normal" in2="BackgroundImageFix" result="effect1_dropShadow"/>
<feBlend mode="normal" in="SourceGraphic" in2="effect1_dropShadow" result="shape"/>
</filter>
</defs>
</svg>
