<?xml version="1.0" encoding="utf-8"?>
<!-- Generator: Adobe Illustrator 24.3.0, SVG Export Plug-In . SVG Version: 6.00 Build 0)  -->
<svg version="1.1" id="Capa_1" xmlns="http://www.w3.org/2000/svg" xmlns:xlink="http://www.w3.org/1999/xlink" x="0px" y="0px"
	 viewBox="0 0 22.5 25" style="enable-background:new 0 0 22.5 25;" xml:space="preserve">
<path d="M20,2.5h-1.2V1.2c0-0.7-0.6-1.2-1.2-1.2s-1.2,0.6-1.2,1.2v1.2h-10V1.2C6.2,0.6,5.7,0,5,0S3.8,0.6,3.8,1.2v1.2H2.5
	C1.1,2.5,0,3.6,0,5l0,17.5C0,23.9,1.1,25,2.5,25H20c1.4,0,2.5-1.1,2.5-2.5V5C22.5,3.6,21.4,2.5,20,2.5z M20,21.2
	c0,0.7-0.6,1.2-1.2,1.2h-15c-0.7,0-1.2-0.6-1.2-1.2V8.8H20V21.2z M7.2,19.3c0.4,0.4,1,0.4,1.3,0l2.4-2.4l2.4,2.4
	c0.4,0.4,1,0.4,1.3,0c0.4-0.4,0.4-1,0-1.3l-2.4-2.4l2.4-2.4c0.4-0.4,0.4-1,0-1.3c-0.4-0.4-1-0.4-1.3,0l-2.4,2.4l-2.4-2.4
	c-0.4-0.4-1-0.4-1.3,0c-0.4,0.4-0.4,1,0,1.3l2.4,2.4L7.2,18C6.9,18.4,6.9,19,7.2,19.3z"/>
</svg>
