<svg width="31" height="33" viewBox="0 0 31 33" fill="none" xmlns="http://www.w3.org/2000/svg">
<path d="M14.75 10.75H9.75C9.0625 10.75 8.5 10.1875 8.5 9.5C8.5 8.8125 9.0625 8.25 9.75 8.25H14.75C15.4375 8.25 16 8.8125 16 9.5C16 10.1875 15.4375 10.75 14.75 10.75Z" fill="black"/>
<path d="M14.75 14.5H9.75C9.0625 14.5 8.5 13.9375 8.5 13.25C8.5 12.5625 9.0625 12 9.75 12H14.75C15.4375 12 16 12.5625 16 13.25C16 13.9375 15.4375 14.5 14.75 14.5Z" fill="black"/>
<g filter="url(#filter0_d)">
<path d="M21.625 3.875L19.75 2L17.875 3.875L16 2L14.125 3.875L12.25 2L10.375 3.875L8.5 2L6.625 3.875L4.75 2V19.5H2.25C1.5625 19.5 1 20.0625 1 20.75V23.25C1 25.325 2.675 27 4.75 27H19.75C21.825 27 23.5 25.325 23.5 23.25V2L21.625 3.875ZM16 24.5H4.75C4.0625 24.5 3.5 23.9375 3.5 23.25V22H7.25H12.25H16V24.5ZM21 23.25C21 23.9375 20.4375 24.5 19.75 24.5C19.0625 24.5 18.5 23.9375 18.5 23.25V20.75C18.5 20.0625 17.9375 19.5 17.25 19.5H14.75H12.25H7.25V5.75H21V23.25Z" fill="black"/>
</g>
<path d="M18.5 10.75C19.1904 10.75 19.75 10.1904 19.75 9.5C19.75 8.80964 19.1904 8.25 18.5 8.25C17.8096 8.25 17.25 8.80964 17.25 9.5C17.25 10.1904 17.8096 10.75 18.5 10.75Z" fill="black"/>
<path d="M18.5 14.5C19.1904 14.5 19.75 13.9404 19.75 13.25C19.75 12.5596 19.1904 12 18.5 12C17.8096 12 17.25 12.5596 17.25 13.25C17.25 13.9404 17.8096 14.5 18.5 14.5Z" fill="black"/>
<defs>
<filter id="filter0_d" x="0" y="0" width="30.5" height="33" filterUnits="userSpaceOnUse" color-interpolation-filters="sRGB">
<feFlood flood-opacity="0" result="BackgroundImageFix"/>
<feColorMatrix in="SourceAlpha" type="matrix" values="0 0 0 0 0 0 0 0 0 0 0 0 0 0 0 0 0 0 127 0"/>
<feOffset dx="3" dy="2"/>
<feGaussianBlur stdDeviation="2"/>
<feColorMatrix type="matrix" values="0 0 0 0 0 0 0 0 0 0 0 0 0 0 0 0 0 0 0.25 0"/>
<feBlend mode="normal" in2="BackgroundImageFix" result="effect1_dropShadow"/>
<feBlend mode="normal" in="SourceGraphic" in2="effect1_dropShadow" result="shape"/>
</filter>
</defs>
</svg>
