<?xml version="1.0" encoding="utf-8"?>
<!-- Generator: Adobe Illustrator 24.3.0, SVG Export Plug-In . SVG Version: 6.00 Build 0)  -->
<svg version="1.1" id="Capa_1" xmlns="http://www.w3.org/2000/svg" xmlns:xlink="http://www.w3.org/1999/xlink" x="0px" y="0px"
	 viewBox="0 0 22.5 25" style="enable-background:new 0 0 22.5 25;" xml:space="preserve">
<path d="M20.6,1.9L18.8,0l-1.9,1.9L15,0l-1.9,1.9L11.2,0L9.4,1.9L7.5,0L5.6,1.9L3.8,0v17.5H1.2c-0.7,0-1.2,0.6-1.2,1.2v2.5
	C0,23.3,1.7,25,3.8,25h15c2.1,0,3.8-1.7,3.8-3.8V0L20.6,1.9z M15,22.5H3.8c-0.7,0-1.2-0.6-1.2-1.2V20H15V22.5z M20,21.2
	c0,0.7-0.6,1.2-1.2,1.2s-1.2-0.6-1.2-1.2v-2.5c0-0.7-0.6-1.2-1.2-1.2h-10V3.7H20V21.2z M17.5,8.8c0.7,0,1.2-0.6,1.2-1.2
	c0-0.7-0.6-1.2-1.2-1.2c-0.7,0-1.2,0.6-1.2,1.2C16.2,8.2,16.8,8.8,17.5,8.8z M8.8,8.8h5c0.7,0,1.2-0.6,1.2-1.2s-0.6-1.2-1.2-1.2h-5
	c-0.7,0-1.2,0.6-1.2,1.2S8.1,8.8,8.8,8.8z M17.5,12.5c0.7,0,1.2-0.6,1.2-1.2S18.2,10,17.5,10c-0.7,0-1.2,0.6-1.2,1.2
	S16.8,12.5,17.5,12.5z M8.8,12.5h5c0.7,0,1.2-0.6,1.2-1.2S14.4,10,13.8,10h-5c-0.7,0-1.2,0.6-1.2,1.2S8.1,12.5,8.8,12.5z"/>
</svg>
