<?xml version="1.0" encoding="utf-8"?>
<!-- Generator: Adobe Illustrator 24.3.0, SVG Export Plug-In . SVG Version: 6.00 Build 0)  -->
<svg version="1.1" id="Capa_1" xmlns="http://www.w3.org/2000/svg" xmlns:xlink="http://www.w3.org/1999/xlink" x="0px" y="0px"
	 viewBox="0 0 61 41" style="enable-background:new 0 0 61 41;" xml:space="preserve">
<path d="M35.9,37.9c4,0,8-0.3,11.9-1l12.4-2.2l-0.1-0.7l-12.4,2.2c-16.5,2.9-35.9-0.7-43.2-8.1c-1.4-1.4-2.3-2.9-2.6-4.4
	c0-0.1,0-0.2,0.1-0.3c0.5,0.9,1.2,1.8,2,2.7c5.7,5.7,18.7,9.2,31.9,9.2c4,0,8-0.3,11.9-1l12.4-2.2l-0.1-0.7l-12.4,2.2
	C31.2,36.6,11.8,33,4.5,25.7c-1-1-1.8-2.1-2.2-3.2c0-0.1,0-0.1,0.1-0.2c0.4,0.5,0.8,1.1,1.3,1.6c5.7,5.7,18.7,9.2,31.9,9.2
	c4,0,8-0.3,11.9-1L60,30l-0.1-0.7l-12.4,2.2c-16.5,2.9-35.9-0.7-43.2-8.1c-0.6-0.6-1.1-1.2-1.5-1.8c0.1-0.1,0.2-0.3,0.3-0.4
	c0.1,0.1,0.3,0.3,0.4,0.4c5.7,5.7,18.7,9.2,31.9,9.2c4,0,8-0.3,11.9-1l12.4-2.2l-0.1-0.7l-12.4,2.2c-16.5,2.9-35.9-0.7-43.2-8.1
	c-0.2-0.2-0.3-0.3-0.5-0.5c2.9-3.6,9.3-6.6,17.7-8.1l12.4-2.2l-0.1-0.7L21,11.9c-8.6,1.5-15,4.5-18,8.2c-0.1-0.2-0.3-0.4-0.4-0.5
	c2.2-4.2,9.1-7.8,18.5-9.4l12.4-2.2l-0.1-0.7L21,9.4c-9.5,1.7-16.3,5.1-18.9,9.4C2.1,18.8,2,18.7,2,18.6c0-0.1,0-0.2,0.1-0.3
	c1.5-4.7,8.8-8.8,19-10.6l12.4-2.2l-0.1-0.7L21,7C10.6,8.8,3.4,12.7,1.5,17.6c0,0,0-0.1-0.1-0.1c0-0.5,0.1-1,0.3-1.5
	c1.5-4.8,8.8-8.8,19-10.6l12.4-2.2l-0.1-0.7L20.7,4.7C10.2,6.5,2.9,10.6,1.2,15.5c0-0.6,0.1-1.2,0.3-1.9c1.5-4.8,8.8-8.8,19-10.6
	l12.4-2.2l-0.1-0.7L20.4,2.4c-10.7,1.9-18,6-19.6,11.1c-0.4,1.4-0.4,2.7,0,4.1c0,0.8,0.1,1.5,0.3,2.3c0,0.5,0,1,0.1,1.5
	c-0.2,0.8-0.2,1.6,0,2.4c-0.5,2.5,0.5,5,2.8,7.3c5.7,5.7,18.7,9.2,31.9,9.2c4,0,8-0.3,11.9-1l12.4-2.2l-0.1-0.7l-12.4,2.2
	c-16.5,2.9-35.9-0.7-43.2-8.1C2.9,29,2,27.3,1.8,25.7c0.5,1,1.2,2,2.2,3C9.7,34.4,22.7,37.9,35.9,37.9z M2.2,20.3
	c0.1,0.1,0.2,0.3,0.3,0.4c-0.1,0.1-0.1,0.2-0.2,0.3c-0.1-0.1-0.2-0.3-0.2-0.4C2.1,20.4,2.2,20.4,2.2,20.3z"/>
</svg>
