<?xml version="1.0" encoding="utf-8"?>
<!-- Generator: Adobe Illustrator 24.3.0, SVG Export Plug-In . SVG Version: 6.00 Build 0)  -->
<svg version="1.1" id="Capa_1" xmlns="http://www.w3.org/2000/svg" xmlns:xlink="http://www.w3.org/1999/xlink" x="0px" y="0px"
	 viewBox="0 0 15.5 23.2" style="enable-background:new 0 0 15.5 23.2;" xml:space="preserve">
<path d="M11.6,11.6H3.9c-2.2,0-3.9,1.7-3.9,3.9v7.7h2.6v-7.7c0-0.8,0.5-1.3,1.3-1.3h7.7c0.8,0,1.3,0.5,1.3,1.3v7.7h2.6v-7.7
	C15.5,13.3,13.8,11.6,11.6,11.6z M7.7,10.3c2.8,0,5.2-2.3,5.2-5.2S10.6,0,7.7,0S2.6,2.3,2.6,5.2S4.9,10.3,7.7,10.3z M7.7,2.6
	c1.4,0,2.6,1.2,2.6,2.6S9.2,7.7,7.7,7.7S5.2,6.6,5.2,5.2S6.3,2.6,7.7,2.6z"/>
</svg>
