<?xml version="1.0" encoding="utf-8"?>
<!-- Generator: Adobe Illustrator 24.3.0, SVG Export Plug-In . SVG Version: 6.00 Build 0)  -->
<svg version="1.1" id="Capa_1" xmlns="http://www.w3.org/2000/svg" xmlns:xlink="http://www.w3.org/1999/xlink" x="0px" y="0px"
	 viewBox="0 0 25 25" style="enable-background:new 0 0 25 25;" xml:space="preserve">
<style type="text/css">
	.st0{fill-rule:evenodd;clip-rule:evenodd;}
</style>
<path class="st0" d="M20.8,4.4h-1.4C19.4,2,17.6,0,15.3,0H9.7C7.4,0,5.6,2,5.6,4.4H4.2C1.9,4.4,0,6.4,0,8.8v11.8C0,23,1.9,25,4.2,25
	h16.7c2.3,0,4.2-2,4.2-4.4V8.8C25,6.4,23.1,4.4,20.8,4.4z M9.7,2.9h5.6c0.8,0,1.4,0.7,1.4,1.5H8.3C8.3,3.6,9,2.9,9.7,2.9z
	 M22.2,20.6c0,0.8-0.6,1.5-1.4,1.5H4.2c-0.8,0-1.4-0.7-1.4-1.5V8.8c0-0.8,0.6-1.5,1.4-1.5h16.7c0.8,0,1.4,0.7,1.4,1.5V20.6z"/>
</svg>
